<?xml version="1.0" standalone="no"?>
<!DOCTYPE svg PUBLIC "-//W3C//DTD SVG 20010904//EN"
 "http://www.w3.org/TR/2001/REC-SVG-20010904/DTD/svg10.dtd">
<svg version="1.0" xmlns="http://www.w3.org/2000/svg"
 width="700.000000pt" height="700.000000pt" viewBox="0 0 700.000000 700.000000"
 preserveAspectRatio="xMidYMid meet">

<g transform="translate(0.000000,700.000000) scale(0.100000,-0.100000)"
fill="#000000" stroke="none">
<path d="M3260 5929 c-229 -31 -450 -82 -595 -139 -124 -48 -173 -70 -250
-108 -531 -267 -974 -783 -1161 -1349 -56 -170 -83 -306 -109 -536 -23 -215
-18 -371 21 -617 53 -330 187 -670 379 -961 312 -471 789 -828 1310 -979 370
-107 772 -125 1127 -51 720 150 1320 605 1657 1254 131 253 204 477 263 807
18 101 18 538 0 640 -103 586 -315 1000 -703 1375 -123 118 -145 137 -235 203
-347 251 -707 397 -1133 457 -115 16 -460 19 -571 4z m96 -83 c3 -7 4 -35 2
-62 l-3 -48 -28 27 c-21 22 -26 34 -21 55 10 39 39 56 50 28z m102 -33 c26
-61 63 -193 54 -193 -4 0 -32 20 -63 44 -58 46 -69 69 -69 152 0 36 6 44 35
44 17 0 27 -11 43 -47z m72 33 c0 -8 -5 -27 -10 -42 -10 -26 -11 -26 -24 -8
-7 10 -16 29 -20 42 -7 19 -4 22 23 22 20 0 31 -5 31 -14z m62 -28 c2 -24 -1
-63 -8 -88 -7 -25 -15 -58 -19 -75 l-8 -30 -13 30 c-26 59 -7 205 27 205 13 0
18 -11 21 -42z m75 -13 c2 -27 6 -105 9 -172 4 -70 3 -123 -2 -123 -5 0 -26
11 -47 25 -33 23 -37 30 -37 68 0 23 5 69 11 102 13 75 13 72 4 118 l-7 38 33
-3 c33 -3 34 -4 36 -53z m110 41 c4 -3 -63 -165 -68 -166 -11 0 -29 85 -29
134 l0 46 48 -7 c26 -3 48 -6 49 -7z m-477 -3 c0 -5 -4 -14 -9 -22 -8 -12 -12
-12 -25 -2 -23 19 -20 31 9 31 14 0 25 -3 25 -7z m-44 -31 c21 -25 22 -33 17
-112 -3 -47 -7 -86 -8 -88 -1 -1 -13 2 -26 6 -22 8 -25 18 -35 108 l-11 99 -2
-93 c-1 -70 -4 -93 -13 -90 -13 5 -33 161 -24 184 3 7 21 12 42 12 27 0 43 -7
60 -26z m575 -3 c10 -25 10 -46 1 -98 -6 -36 -16 -109 -23 -161 l-13 -95 -36
-18 c-20 -9 -40 -17 -43 -17 -4 0 -7 31 -7 69 0 94 24 207 69 324 14 36 36 34
52 -4z m29 16 c0 -8 -4 -15 -9 -15 -5 0 -11 7 -15 15 -3 9 0 15 9 15 8 0 15
-7 15 -15z m-720 -76 c0 -38 -4 -69 -8 -69 -8 0 -66 91 -77 122 -5 14 1 17 32
20 21 2 41 2 46 0 4 -2 7 -34 7 -73z m800 21 c0 -33 -4 -60 -9 -60 -17 0 -72
72 -67 87 3 8 6 19 6 24 0 5 16 9 35 9 l35 0 0 -60z m68 -13 c13 -51 12 -60
-2 -82 -24 -37 -32 -31 -40 28 -11 92 -8 119 11 115 12 -2 22 -22 31 -61z
m-945 -19 c18 -40 41 -79 50 -86 13 -11 15 -24 10 -60 -7 -53 -11 -62 -21 -45
-4 7 -37 22 -72 35 -73 26 -85 48 -52 95 13 20 17 40 14 72 -3 41 6 60 30 61
4 0 23 -33 41 -72z m985 22 c3 -40 1 -43 -11 -30 -8 8 -18 30 -22 48 -6 29 -5
33 12 30 14 -2 19 -14 21 -48z m-1078 -51 c-15 -27 -26 -15 -34 38 -5 38 -4
42 16 45 19 2 24 -2 26 -29 2 -18 -2 -42 -8 -54z m1110 82 c0 -6 -4 -13 -10
-16 -5 -3 -10 1 -10 9 0 9 5 16 10 16 6 0 10 -4 10 -9z m40 -11 c0 -19 -34
-79 -42 -74 -12 8 -10 41 4 64 13 21 38 27 38 10z m-1195 -37 c3 -21 8 -48 11
-59 6 -32 -27 -68 -54 -60 -26 9 -34 36 -30 96 3 43 12 52 60 59 4 1 10 -16
13 -36z m1263 22 c1 -1 -8 -46 -21 -99 l-23 -98 -28 36 c-26 35 -26 37 -12 78
33 98 34 100 59 92 12 -3 23 -7 25 -9z m-853 -35 c23 -24 30 -43 36 -92 4 -35
6 -64 5 -65 -1 -2 -21 5 -44 14 l-42 16 0 79 c0 43 4 78 8 78 5 0 21 -13 37
-30z m920 -34 c-11 -89 -24 -121 -60 -156 -23 -22 -35 -29 -35 -19 0 24 19
130 31 174 6 22 13 45 14 51 2 7 15 9 30 6 26 -4 26 -6 20 -56z m-1430 26 c1
-13 -2 -25 -6 -28 -11 -6 -31 34 -24 47 11 16 28 5 30 -19z m1073 -19 c44 -42
56 -63 65 -108 7 -39 3 -46 -57 -84 -67 -42 -76 -40 -76 11 0 41 20 218 25
218 1 0 21 -17 43 -37z m-1101 -10 c24 -31 29 -48 32 -114 3 -68 0 -81 -20
-108 -13 -17 -26 -28 -30 -24 -23 27 -41 283 -20 283 6 0 23 -17 38 -37z
m1523 22 c0 -8 -9 -19 -20 -25 -18 -9 -20 -8 -20 15 0 18 5 25 20 25 11 0 20
-7 20 -15z m83 -25 c4 -3 -8 -20 -25 -37 -34 -32 -108 -76 -116 -68 -9 9 17
62 49 96 29 33 35 36 58 26 14 -6 29 -14 34 -17z m-1673 -41 c0 -52 -2 -60
-16 -55 -9 3 -18 6 -20 6 -7 0 -4 96 3 103 3 4 12 7 20 7 9 0 13 -17 13 -61z
m1340 35 c0 -8 -4 -12 -10 -9 -5 3 -10 10 -10 16 0 5 5 9 10 9 6 0 10 -7 10
-16z m-1390 -39 c0 -33 -4 -45 -15 -45 -27 0 -30 5 -26 40 4 42 8 50 27 50 10
0 14 -12 14 -45z m1774 29 c26 -10 19 -43 -11 -55 -15 -5 -35 -9 -45 -7 -16 3
-16 5 3 36 22 33 27 36 53 26z m-1830 -31 c-9 -40 -17 -45 -42 -27 -28 19 -28
28 1 42 38 18 48 15 41 -15z m1421 6 c7 -20 -18 -59 -37 -59 -18 0 -19 30 -1
54 22 31 30 32 38 5z m-573 -43 c49 -42 66 -64 74 -95 6 -23 8 -43 5 -46 -4
-2 -20 10 -35 26 -16 17 -45 38 -64 47 -31 15 -37 24 -47 70 -7 28 -9 52 -4
52 4 0 36 -24 71 -54z m1048 34 c0 -5 -7 -10 -15 -10 -8 0 -15 5 -15 10 0 6 7
10 15 10 8 0 15 -4 15 -10z m-1942 -40 c26 -24 32 -37 32 -71 0 -44 -32 -109
-54 -109 -13 0 -20 19 -51 129 -23 84 10 107 73 51z m1982 -4 c0 -13 -9 -35
-21 -50 -20 -26 -77 -61 -85 -53 -2 2 4 27 14 56 14 41 25 56 48 66 35 15 44
11 44 -19z m-1361 -16 c3 -25 -25 -90 -40 -90 -16 0 -20 21 -13 70 6 45 9 51
28 48 14 -2 22 -12 25 -28z m932 -48 c17 -42 9 -76 -29 -133 -44 -66 -78 -109
-85 -109 -3 0 -3 24 0 54 3 30 0 84 -7 121 l-13 67 39 39 39 40 23 -28 c13
-15 28 -38 33 -51z m469 69 c0 -5 -7 -14 -15 -21 -13 -10 -15 -9 -15 9 0 12 6
21 15 21 8 0 15 -4 15 -9z m-2121 -74 c7 -32 11 -61 8 -63 -4 -5 -65 65 -81
93 -7 13 45 46 55 35 3 -4 11 -33 18 -65z m401 63 c0 -5 -2 -10 -4 -10 -3 0
-8 5 -11 10 -3 6 -1 10 4 10 6 0 11 -4 11 -10z m57 -8 c7 -4 19 -53 27 -108 9
-55 23 -118 32 -139 16 -38 15 -41 -7 -82 -13 -24 -29 -43 -35 -43 -16 0 -74
206 -74 263 0 45 24 117 39 117 3 0 11 -4 18 -8z m323 -12 c28 -28 26 -90 -2
-135 -27 -42 -40 -43 -62 -9 -16 24 -16 27 3 60 12 19 21 51 21 70 0 39 11 43
40 14z m1190 18 c-1 -17 -44 -135 -53 -147 -30 -36 -101 -71 -147 -71 -43 0
-47 2 -58 33 -7 18 -12 41 -12 49 0 31 124 123 176 131 35 5 94 8 94 5z m184
-4 c24 -9 20 -25 -25 -90 -51 -72 -46 -67 -57 -60 -17 11 7 98 35 128 15 15
28 28 29 28 1 0 9 -3 18 -6z m-1950 -55 c3 -16 1 -52 -4 -80 -6 -29 -10 -54
-10 -56 0 -8 -54 7 -64 17 -6 6 -3 17 7 28 11 12 17 36 17 69 0 50 10 66 36
56 7 -2 14 -17 18 -34z m414 -34 c17 -24 32 -47 32 -50 0 -8 -83 -114 -90
-114 -23 -3 -81 203 -65 229 3 5 24 2 48 -6 29 -10 52 -29 75 -59z m-667 0
c23 -36 49 -70 59 -75 30 -16 32 -61 3 -103 -15 -21 -29 -34 -33 -30 -4 4 -20
40 -35 79 -22 59 -35 77 -71 103 -24 17 -44 34 -44 38 0 6 65 50 77 53 2 0 21
-29 44 -65z m2265 51 c3 -8 0 -45 -8 -82 -12 -64 -15 -69 -62 -101 -26 -18
-55 -33 -63 -33 -23 0 -8 45 36 111 20 30 43 70 50 87 14 33 38 42 47 18z
m-1337 -15 c33 -17 39 -26 51 -76 11 -44 11 -66 2 -106 -7 -28 -12 -76 -12
-108 0 -32 -3 -61 -6 -64 -7 -7 -112 117 -133 157 -11 20 -9 28 13 61 31 45
48 100 40 132 -7 28 -4 28 45 4z m-630 -28 c19 -49 30 -114 24 -149 -7 -40
-12 -42 -41 -11 -20 21 -21 27 -11 56 6 18 9 55 7 82 -6 54 4 64 21 22z m2031
7 l25 -20 -30 -24 c-41 -34 -52 -33 -48 7 8 64 13 68 53 37z m-779 -106 c-1
-49 -8 -114 -16 -144 -9 -30 -20 -90 -25 -134 -5 -43 -12 -81 -15 -84 -3 -3
-21 10 -40 28 l-34 35 -11 135 c-14 191 -17 176 38 204 26 13 56 33 66 45 11
12 23 18 28 13 5 -5 9 -49 9 -98z m553 89 c-4 -10 -9 -47 -10 -83 -1 -36 -2
-73 -3 -82 -1 -14 -129 -93 -137 -85 -2 2 8 43 21 91 22 80 29 93 72 132 51
46 70 55 57 27z m-2201 -31 c35 -36 84 -146 69 -156 -18 -11 -69 24 -81 55 -7
19 -19 49 -27 67 -15 36 -19 72 -6 72 4 0 24 -17 45 -38z m1302 26 c14 -6 28
-22 31 -35 7 -28 -8 -95 -22 -100 -11 -4 -44 95 -44 130 0 20 2 20 35 5z
m-121 -71 l50 -58 -23 -92 c-18 -70 -30 -100 -54 -124 -17 -18 -35 -33 -40
-33 -5 0 -6 41 -3 93 10 155 11 231 2 256 -13 37 11 22 68 -42z m1319 48 c18
-13 17 -16 -15 -58 -18 -25 -37 -52 -43 -60 -10 -16 -108 -28 -120 -15 -6 5
144 148 154 148 3 0 14 -7 24 -15z m-2554 -51 c25 -67 27 -88 5 -80 -9 3 -22
6 -30 6 -11 0 -14 16 -14 65 0 36 4 65 9 65 4 0 18 -25 30 -56z m576 -31 c4
-32 20 -97 36 -145 25 -73 27 -91 18 -112 -7 -14 -16 -26 -20 -26 -17 0 -87
191 -91 245 -2 33 30 108 43 100 4 -3 10 -31 14 -62z m2038 40 c14 -16 13 -21
-7 -58 -22 -39 -50 -53 -82 -41 -11 4 -7 18 22 61 20 30 40 55 44 55 4 0 14
-8 23 -17z m-2699 -15 c-9 -31 -11 -33 -29 -18 -12 10 -13 16 -4 26 19 23 41
17 33 -8z m1971 -19 c8 -24 7 -24 -22 -33 -26 -8 -27 -6 -11 29 14 30 24 32
33 4z m-980 -30 c4 -12 -1 -29 -13 -44 -11 -14 -23 -43 -27 -65 -4 -22 -11
-42 -15 -45 -10 -6 -60 63 -60 81 0 6 18 35 41 63 43 54 60 56 74 10z m607
-181 c-4 -4 -19 3 -31 16 -18 19 -24 40 -28 89 -4 63 -3 65 29 91 l33 25 3
-106 c1 -58 -1 -110 -6 -115z m-1624 194 c22 -17 23 -27 13 -81 -2 -7 -52 43
-62 62 -20 36 11 48 49 19z m2785 4 c24 -18 22 -22 -15 -35 -38 -14 -42 -11
-27 23 14 30 17 31 42 12z m-2334 -11 c29 -14 29 -15 15 -55 -8 -23 -16 -50
-17 -60 -6 -39 -15 -29 -36 40 -28 91 -20 106 38 75z m1757 -11 c-3 -9 -9 -28
-13 -42 -9 -39 -64 -111 -84 -112 -9 0 -49 99 -49 121 0 16 8 19 43 19 23 0
53 7 67 14 34 19 43 19 36 0z m-2239 -41 c56 -67 63 -85 70 -164 l6 -69 -45 0
c-44 0 -46 1 -51 34 -3 19 -24 65 -46 102 -23 37 -41 76 -41 85 0 15 44 58 61
59 3 0 24 -21 46 -47z m2883 4 c0 -7 -4 -17 -8 -22 -8 -12 -131 -39 -139 -31
-13 12 26 50 67 66 46 18 80 13 80 -13z m-2720 -12 c17 -9 30 -21 30 -27 0 -6
14 -33 31 -60 31 -48 32 -50 20 -103 -7 -30 -16 -57 -21 -60 -9 -6 -51 54 -73
103 -6 15 -19 38 -29 51 -11 14 -18 41 -18 67 0 49 11 54 60 29z m1296 -2 c19
-26 17 -40 -15 -118 -16 -39 -37 -102 -46 -142 -16 -71 -50 -132 -65 -116 -4
4 -10 35 -14 68 l-6 60 40 40 c42 41 52 64 71 163 6 34 14 62 17 62 3 0 11 -8
18 -17z m607 -30 c8 -27 18 -66 22 -89 6 -38 4 -43 -28 -67 -81 -62 -190 -137
-198 -137 -11 0 -11 97 0 163 10 63 55 125 111 153 65 34 75 31 93 -23z m-890
-90 c32 -40 60 -86 63 -101 5 -25 1 -31 -46 -56 -28 -15 -52 -26 -54 -24 -1 1
-26 34 -56 71 l-53 69 12 66 c7 36 17 75 23 86 11 20 12 20 32 -8 12 -16 47
-62 79 -103z m1747 102 c0 -8 -9 -13 -20 -12 -19 1 -27 17 -14 30 10 9 34 -4
34 -18z m-2511 -49 c7 -27 10 -50 8 -53 -3 -2 -18 14 -35 35 -29 37 -30 40
-15 61 19 28 27 20 42 -43z m159 42 c35 -71 44 -126 40 -271 -3 -126 -6 -148
-22 -166 -11 -12 -22 -21 -26 -21 -4 0 -16 21 -28 48 -32 72 -39 209 -16 333
18 100 31 119 52 77z m2027 5 c-4 -10 -13 -33 -20 -52 -14 -38 -45 -52 -143
-65 l-52 -7 6 33 c14 71 24 82 94 94 102 18 124 17 115 -3z m105 9 c0 -11 -50
-57 -76 -70 -32 -16 -36 -4 -13 39 17 34 24 39 54 39 19 0 35 -4 35 -8z
m-2791 -88 c53 -111 54 -134 3 -98 -12 8 -22 24 -22 35 0 11 -12 42 -26 70
-24 48 -26 79 -6 79 5 0 28 -39 51 -86z m381 36 c0 -3 -5 -12 -10 -20 -9 -13
-13 -11 -30 10 -31 39 -26 55 10 33 17 -9 30 -20 30 -23z m1270 30 c0 -5 -2
-10 -4 -10 -3 0 -8 5 -11 10 -3 6 -1 10 4 10 6 0 11 -4 11 -10z m-1714 -55
c25 -60 18 -71 -21 -36 -53 47 -55 37 -4 -16 43 -45 46 -51 42 -93 -2 -25 -6
-51 -8 -57 -7 -22 -49 5 -105 69 l-53 60 59 54 c32 29 63 54 67 54 4 0 15 -16
23 -35z m1084 -18 c0 -5 10 -22 21 -39 20 -28 21 -33 8 -104 -7 -41 -17 -73
-22 -71 -5 1 -29 41 -55 88 l-46 86 30 46 29 47 17 -23 c10 -12 18 -26 18 -30z
m1900 46 c0 -4 -21 -40 -47 -80 -48 -73 -48 -73 -85 -68 -114 16 -118 17 -118
34 0 23 20 47 45 54 11 3 58 19 105 36 91 33 100 35 100 24z m145 -3 c3 -5
-27 -31 -67 -58 -40 -27 -84 -61 -97 -76 -50 -53 -55 -25 -9 48 17 28 37 61
45 74 11 18 22 22 68 22 29 0 56 -4 60 -10z m-615 -6 c0 -4 -10 -33 -21 -65
-21 -57 -65 -109 -158 -185 l-34 -29 6 55 c4 30 7 69 7 87 0 30 7 36 93 87 91
55 107 62 107 50z m-1675 -94 c23 -66 27 -93 30 -220 2 -113 8 -165 27 -238
24 -93 25 -111 4 -89 -40 42 -136 163 -136 172 0 6 7 21 16 33 24 35 32 117
25 270 -5 127 -4 159 5 150 1 -2 14 -37 29 -78z m-304 13 c23 -32 46 -60 50
-63 20 -15 40 -170 22 -170 -5 0 -30 13 -57 28 l-49 27 -2 57 c-1 42 -8 66
-27 95 -20 30 -23 43 -15 61 15 34 31 27 78 -35z m1159 42 c9 -11 11 -32 6
-71 -6 -55 -12 -70 -61 -149 -14 -22 -32 -55 -42 -74 -9 -18 -50 -70 -92 -115
-60 -66 -77 -79 -79 -63 -2 12 10 34 31 56 80 85 127 166 156 273 44 161 53
177 81 143z m1470 3 c0 -7 -9 -27 -20 -45 -15 -25 -32 -36 -75 -49 -31 -9 -59
-14 -62 -11 -7 8 29 41 89 81 57 39 68 43 68 24z m30 -27 c0 -6 -4 -13 -10
-16 -5 -3 -10 1 -10 9 0 9 5 16 10 16 6 0 10 -4 10 -9z m-490 -40 c0 -26 -17
-37 -78 -50 -70 -15 -81 -14 -57 5 21 17 115 64 128 64 4 0 7 -8 7 -19z m-900
-66 c0 -18 -91 -156 -100 -150 -7 5 24 197 36 216 7 11 64 -48 64 -66z m1437
60 c3 -11 -86 -59 -94 -51 -10 10 8 44 30 54 26 13 59 11 64 -3z m-2930 -52
c-11 -10 -27 8 -27 30 l0 21 16 -22 c9 -13 14 -26 11 -29z m-419 -31 c32 -44
63 -75 86 -86 40 -19 56 -48 56 -102 0 -30 -13 -46 -22 -26 -1 4 -27 26 -56
49 -54 43 -162 166 -162 186 0 12 30 47 41 47 4 0 30 -31 57 -68z m570 41 c18
-41 16 -83 -5 -83 -33 0 -45 15 -38 46 17 75 23 80 43 37z m-348 -65 c7 -27
10 -51 7 -54 -3 -3 -23 0 -46 7 l-41 12 0 52 c0 28 3 54 6 57 3 4 18 -1 33
-10 21 -11 32 -29 41 -64z m921 -61 c16 -45 29 -96 29 -112 0 -17 -15 -62 -34
-101 -18 -39 -37 -85 -41 -102 -3 -18 -10 -32 -14 -32 -10 0 -38 99 -53 190
-14 79 -1 198 27 266 l16 39 21 -33 c11 -18 34 -70 49 -115z m2243 125 c15
-18 12 -22 -67 -85 -46 -36 -102 -87 -125 -112 -60 -68 -55 -41 22 99 20 38
40 57 84 82 68 39 65 39 86 16z m-154 4 c0 -20 -19 -40 -54 -58 -22 -11 -67
-36 -98 -55 -31 -19 -61 -32 -66 -29 -15 9 -4 40 26 75 22 26 38 33 86 41 33
5 64 14 70 20 10 10 36 14 36 6z m-1913 -61 c31 -43 32 -45 13 -58 -11 -8 -33
-38 -50 -68 l-30 -54 0 62 c0 65 17 163 28 162 4 0 21 -20 39 -44z m1029 -11
c-11 -93 -42 -134 -113 -149 -32 -6 -93 16 -93 34 0 5 30 32 68 59 37 28 80
64 96 81 42 44 50 40 42 -25z m622 6 c4 -67 -21 -90 -99 -90 l-61 0 6 28 c3
15 8 44 12 64 7 41 19 47 94 44 l45 -1 3 -45z m-2630 25 c2 -2 6 -47 9 -102
l6 -98 -22 19 c-26 24 -67 108 -76 160 l-8 39 44 -7 c24 -4 45 -9 47 -11z
m2674 -7 c-7 -7 -12 -8 -12 -2 0 6 3 14 7 17 3 4 9 5 12 2 2 -3 -1 -11 -7 -17z
m-3112 3 c0 -4 14 -25 30 -46 17 -21 30 -41 30 -45 0 -13 -73 10 -100 30 l-25
19 24 25 c25 26 41 33 41 17z m2887 -5 c-3 -7 -9 -34 -12 -60 l-7 -46 -120 0
-120 0 14 23 c10 14 41 31 84 45 38 13 87 29 109 37 52 18 58 18 52 1z m642 0
c10 -11 8 -23 -7 -53 -19 -37 -21 -38 -66 -35 -52 5 -52 7 14 69 40 37 43 38
59 19z m-2986 -30 c15 -11 16 -18 7 -42 -12 -32 -21 -24 -34 29 -7 30 0 33 27
13z m1542 -57 l15 -45 -49 -88 c-53 -95 -90 -141 -103 -128 -4 4 -11 35 -14
68 -6 58 -5 63 29 110 19 27 47 73 62 103 30 60 34 58 60 -20z m-468 -9 c-8
-72 -17 -110 -26 -110 -3 0 -18 29 -32 65 l-27 65 32 19 c54 33 60 29 53 -39z
m1943 41 c0 -10 -7 -24 -15 -31 -16 -13 -18 -8 -9 28 8 27 24 29 24 3z m-280
-5 c0 -8 -4 -17 -9 -20 -17 -11 -51 -96 -51 -128 -1 -26 -14 -47 -64 -102 -50
-55 -74 -73 -122 -91 -32 -12 -67 -26 -78 -30 -14 -6 -12 3 14 46 17 30 52 95
77 146 36 74 50 93 72 98 14 3 53 26 86 50 65 48 75 52 75 31z m-3268 -38 c71
-35 212 -141 231 -174 19 -33 56 -144 48 -144 -4 0 -41 27 -81 59 -39 32 -86
62 -103 65 -34 7 -67 32 -67 52 0 7 -11 21 -25 32 -14 11 -46 43 -71 71 -39
43 -44 54 -34 67 7 8 16 13 19 12 3 -2 41 -20 83 -40z m1857 1 c-5 -22 -9 -55
-8 -72 2 -21 -10 -51 -32 -88 -19 -31 -54 -104 -79 -162 -25 -59 -48 -107 -52
-107 -4 0 -14 26 -23 57 -16 53 -16 59 2 97 10 22 41 68 69 102 28 34 65 97
84 138 36 83 53 99 39 35z m-1235 8 c16 -12 15 -17 -10 -82 -14 -39 -29 -101
-33 -140 l-6 -69 -19 28 c-36 56 -31 119 21 244 15 35 21 38 47 19z m2984 -28
c7 -12 12 -22 10 -23 -2 -1 -23 -17 -48 -37 -49 -38 -96 -69 -105 -69 -3 0 -5
10 -5 22 0 11 17 38 38 58 20 20 43 44 50 53 18 23 45 21 60 -4z m-3654 -65
c37 -41 66 -77 64 -79 -4 -5 -148 64 -177 83 -11 8 -9 15 10 41 12 17 25 31
28 31 3 0 37 -34 75 -76z m1541 34 c9 -24 19 -69 22 -100 l6 -56 -59 -66 c-33
-36 -64 -66 -71 -66 -60 0 -20 231 54 313 23 25 29 22 48 -25z m1978 36 c3 -4
2 -14 -3 -24 -13 -25 -188 -162 -199 -156 -5 3 -12 18 -15 33 -6 23 1 34 56
90 59 59 65 63 109 63 25 0 49 -3 52 -6z m-3162 -51 c86 -92 219 -303 219
-348 0 -14 -107 3 -147 24 -36 18 -44 29 -67 93 -15 39 -31 101 -36 137 -5 37
-12 81 -15 99 -10 42 3 41 46 -5z m434 6 c63 -35 62 -33 39 -151 -16 -77 -21
-87 -68 -138 -61 -66 -65 -68 -83 -44 -16 22 -17 98 -1 201 10 72 40 163 53
163 3 0 30 -14 60 -31z m2215 2 c9 -1 0 -15 -25 -41 -49 -50 -67 -52 -58 -7 8
42 19 55 46 52 12 -1 29 -3 37 -4z m-125 -47 c-7 -25 -15 -47 -17 -49 -7 -7
-223 -84 -226 -81 -2 2 0 37 4 79 6 73 7 75 38 85 17 5 72 10 123 11 l92 1
-14 -46z m195 40 c0 -6 -88 -173 -100 -189 -4 -5 -25 -41 -46 -80 -47 -86 -73
-128 -148 -239 -46 -67 -64 -86 -83 -86 -12 0 -23 2 -23 4 0 2 29 59 64 127
35 68 69 142 76 164 7 22 25 68 41 103 25 54 34 65 72 81 27 12 61 39 87 70
39 46 60 62 60 45z m625 -24 c3 -5 -7 -29 -23 -52 -16 -24 -37 -59 -47 -78
-29 -58 -85 -110 -118 -110 l-30 0 7 68 c4 37 10 68 14 70 4 1 43 27 87 57 82
55 99 62 110 45z m-3730 -51 c55 -28 101 -54 102 -57 0 -4 11 -40 24 -79 12
-40 21 -75 18 -77 -2 -3 -30 3 -62 12 -55 15 -60 19 -84 66 -14 28 -47 74 -74
102 -35 35 -48 55 -43 67 3 9 9 17 13 17 3 0 51 -23 106 -51z m2652 27 c-3 -8
-9 -42 -13 -75 l-7 -61 -81 -54 c-105 -69 -164 -106 -171 -106 -3 0 -5 11 -5
25 0 16 12 34 36 52 19 15 44 35 53 43 10 8 35 50 55 92 30 63 42 79 64 84 15
3 32 7 37 9 24 8 37 4 32 -9z m1122 -42 c12 -19 21 -41 21 -47 0 -12 -99 -67
-120 -67 -5 0 7 34 27 75 21 41 40 75 44 75 4 0 16 -16 28 -36z m-2835 7 c17
-19 17 -21 -11 -55 -30 -39 -47 -47 -40 -18 3 9 8 34 12 55 7 42 14 45 39 18z
m1270 1 c4 -11 -1 -36 -10 -58 -9 -21 -27 -73 -39 -114 -30 -101 -52 -150 -77
-177 -30 -32 -38 -29 -31 12 3 19 0 55 -6 81 -12 45 -11 46 23 85 20 21 50 67
67 101 46 92 62 107 73 70z m-2299 -34 c39 -46 80 -117 71 -125 -2 -3 -14 -2
-26 2 -24 8 -114 140 -105 155 11 17 22 11 60 -32z m2584 -22 c-43 -80 -111
-120 -83 -48 15 37 91 115 105 106 4 -2 -6 -28 -22 -58z m990 42 c0 -16 -15
-33 -51 -55 -46 -30 -68 -35 -68 -13 0 7 108 90 117 90 2 0 3 -10 2 -22z
m-2125 -100 c9 -129 8 -238 -3 -238 -5 0 -23 17 -41 37 -32 36 -33 38 -27 112
6 71 40 181 57 181 4 0 10 -41 14 -92z m-1496 36 c13 -26 21 -48 19 -50 -7 -7
-77 26 -77 36 0 14 22 60 30 60 3 0 16 -21 28 -46z m3446 30 c10 -27 7 -32
-38 -64 -38 -26 -54 -49 -114 -168 -39 -75 -79 -145 -89 -154 -31 -28 -107
-57 -172 -66 -34 -5 -61 -6 -61 -2 0 10 88 150 123 194 42 55 50 60 139 106
57 29 90 56 134 105 32 36 61 65 65 65 4 0 10 -7 13 -16z m-3114 -29 c14 -8
48 -37 75 -65 28 -29 67 -63 88 -76 20 -13 37 -28 37 -33 0 -5 -33 -11 -72
-14 -40 -3 -83 -9 -95 -12 -15 -5 -23 -3 -23 4 0 7 -9 31 -19 54 -25 54 -61
150 -61 160 0 9 33 1 70 -18z m1764 -50 c6 -27 1 -36 -40 -75 -43 -42 -46 -43
-40 -19 3 15 18 54 33 88 28 62 35 63 47 6z m291 -21 c9 -41 15 -77 13 -78
-45 -33 -98 -63 -98 -55 0 12 50 190 57 202 8 14 11 7 28 -69z m605 70 c0 -3
-32 -71 -71 -151 -64 -130 -79 -153 -150 -226 -43 -44 -79 -76 -79 -70 0 12
50 151 75 208 9 22 20 65 24 95 l6 55 90 47 c90 47 105 53 105 42z m-1796 -99
c38 -53 66 -99 63 -102 -4 -3 -25 -1 -47 5 -22 5 -67 8 -99 5 -58 -4 -59 -4
-70 28 -6 18 -11 38 -11 46 0 14 79 113 90 113 3 0 36 -43 74 -95z m2426 70
c0 -36 -21 -125 -29 -125 -4 0 -17 21 -30 47 l-23 48 33 27 c41 34 49 35 49 3z
m349 3 c5 -14 5 -28 -2 -36 -15 -19 -98 -60 -144 -71 -21 -5 -68 -18 -105 -29
-66 -20 -83 -17 -53 8 16 13 275 147 288 149 4 0 11 -9 16 -21z m-2179 -37 c9
-23 9 -33 -2 -50 -7 -12 -16 -21 -19 -21 -9 0 -15 48 -11 78 5 30 17 28 32 -7z
m1690 17 c0 -6 -34 -46 -75 -89 -41 -42 -75 -73 -75 -69 0 31 47 105 87 135
49 37 63 42 63 23z m-3451 -49 c58 -23 107 -42 107 -43 1 0 5 -16 9 -33 9 -43
-4 -43 -103 0 -43 18 -96 39 -119 47 l-42 13 15 28 c8 16 18 29 21 29 4 0 54
-19 112 -41z m3935 -21 c-52 -102 -141 -165 -242 -170 -60 -3 -63 -2 -77 26
-24 46 -19 52 50 64 97 18 204 58 244 90 20 17 37 28 39 27 2 -2 -4 -18 -14
-37z m-2235 -43 c-5 -36 -15 -88 -24 -116 -15 -51 -70 -149 -84 -149 -4 0 -22
20 -39 44 -29 40 -31 47 -20 73 21 49 157 225 169 218 3 -2 2 -34 -2 -70z
m1808 10 l27 -55 -44 -42 c-61 -60 -90 -78 -127 -78 -17 0 -44 -5 -59 -10 -15
-6 -29 -8 -32 -6 -11 12 178 246 199 246 5 0 21 -25 36 -55z m480 24 c3 -15
-44 -55 -54 -46 -3 3 3 19 13 36 19 32 37 36 41 10z m-1257 -14 c0 -30 -87
-217 -128 -277 -70 -101 -148 -150 -188 -117 -31 26 12 143 93 252 25 34 196
166 216 167 4 0 7 -11 7 -25z m-2834 1 c22 -7 78 -32 125 -55 47 -22 91 -41
97 -41 12 0 42 -71 35 -84 -9 -14 -82 3 -146 35 -87 43 -202 159 -158 159 5 0
26 -6 47 -14z m285 -17 c78 -27 93 -69 24 -69 -47 0 -65 16 -65 59 0 25 -2 24
41 10z m3763 -96 c-43 -39 -82 -69 -86 -67 -9 6 15 69 35 92 6 9 32 30 57 48
42 31 46 32 58 16 12 -15 5 -25 -64 -89z m-2973 70 c12 -31 0 -43 -44 -43 -26
0 -27 2 -16 23 28 54 45 60 60 20z m-1103 -13 c17 -16 32 -32 32 -35 0 -8 -73
6 -83 15 -10 9 0 50 11 50 4 0 22 -14 40 -30z m1936 -37 c12 -83 -25 -303 -62
-361 -14 -21 -35 -5 -76 59 l-39 60 52 102 c28 56 51 105 51 108 0 4 12 28 26
54 30 52 37 49 48 -22z m296 20 c0 -14 -35 -93 -78 -177 -43 -83 -91 -186
-107 -228 -16 -43 -33 -78 -37 -78 -11 0 -28 71 -28 122 0 26 12 84 26 130 25
80 30 87 118 175 50 50 94 89 99 86 4 -2 7 -16 7 -30z m1952 -47 c10 -27 17
-49 16 -50 -34 -21 -163 -108 -191 -130 -21 -15 -40 -27 -42 -25 -8 9 23 103
37 108 8 3 44 39 79 79 35 39 68 71 73 69 5 -2 17 -25 28 -51z m-3549 28 c24
-9 130 -224 111 -224 -8 0 -132 69 -174 97 -47 31 -114 124 -97 136 13 9 131
3 160 -9z m1867 0 c0 -47 -47 -199 -82 -264 -23 -41 -50 -94 -62 -116 -22 -44
-64 -71 -176 -114 -33 -12 -68 -35 -88 -58 l-33 -37 7 35 c18 94 80 246 136
338 11 18 50 53 87 77 36 24 75 52 86 62 45 41 110 93 118 93 4 0 7 -7 7 -16z
m-2480 -22 c34 -13 46 -30 54 -72 3 -20 15 -52 26 -73 26 -48 25 -59 -2 -55
-15 2 -29 16 -40 39 -9 20 -45 63 -79 97 -86 84 -70 109 41 64z m3650 8 c0 -6
-7 -24 -15 -40 -11 -21 -23 -30 -40 -30 -33 0 -31 7 7 47 33 34 48 41 48 23z
m-3230 -42 l23 -41 -48 6 c-26 4 -58 7 -71 7 -15 0 -27 10 -38 32 -9 17 -16
33 -16 35 0 1 28 3 63 3 l63 0 24 -42z m418 28 c8 -8 51 -220 52 -253 0 -22
-40 -14 -63 11 -13 14 -47 70 -76 125 -28 55 -56 103 -62 106 -5 4 -9 11 -9
17 0 8 24 9 77 4 42 -3 78 -8 81 -10z m-827 -154 c11 -25 18 -47 15 -49 -2 -2
-15 -1 -30 3 -21 5 -27 14 -33 48 -4 30 -16 51 -45 79 -28 27 -38 43 -33 55 5
14 16 7 57 -38 28 -30 59 -74 69 -98z m1344 117 c103 -32 109 -39 122 -116 4
-26 -1 -41 -23 -70 -37 -49 -72 -81 -107 -100 -37 -18 -50 -8 -76 60 -10 29
-30 77 -44 107 -36 80 -57 131 -57 141 0 19 94 8 185 -22z m-226 2 c21 -38 68
-178 80 -236 17 -81 11 -195 -10 -208 -22 -14 -99 42 -126 91 -25 45 -83 246
-83 287 0 53 11 74 39 78 64 10 90 7 100 -12z m2561 4 c0 -8 -7 -15 -15 -15
-9 0 -12 6 -9 15 4 8 10 15 15 15 5 0 9 -7 9 -15z m246 -1 c-3 -9 -6 -24 -6
-35 0 -13 -20 -29 -69 -54 -39 -19 -79 -44 -89 -56 -24 -25 -28 -19 -31 52 -3
63 4 69 85 69 27 0 50 7 65 20 29 24 54 26 45 4z m-3786 -32 c38 -19 80 -32
102 -32 29 0 41 -6 54 -25 19 -30 76 -166 71 -172 -4 -3 -85 30 -147 60 -49
23 -90 60 -118 106 -29 46 -50 106 -35 99 4 -2 37 -18 73 -36z m-215 -60 c18
-42 18 -42 3 -42 -7 1 -29 15 -50 33 -30 27 -35 36 -27 55 8 22 9 22 34 6 14
-9 32 -33 40 -52z m3755 -30 c0 -70 -3 -83 -30 -126 -65 -102 -171 -196 -222
-196 -36 0 -35 9 3 46 67 63 158 195 180 262 24 74 35 92 55 92 11 0 14 -18
14 -78z m514 44 c3 -13 9 -31 12 -40 5 -13 -1 -16 -32 -15 -22 1 -52 4 -67 8
l-29 6 44 32 c53 38 64 40 72 9z m-2686 -10 c3 -12 -1 -17 -10 -14 -7 3 -15
13 -16 22 -3 12 1 17 10 14 7 -3 15 -13 16 -22z m2080 17 c-64 -145 -102 -203
-188 -286 l-90 -87 -55 0 c-29 0 -56 3 -58 8 -3 4 7 38 21 76 22 60 32 74 81
110 31 22 85 70 121 105 36 35 76 67 90 71 33 11 83 12 78 3z m-3143 -25 c30
-16 178 -129 192 -147 7 -9 13 -19 13 -24 0 -11 -43 -26 -120 -42 -62 -13 -66
-13 -87 7 -12 12 -28 37 -34 57 -6 20 -26 63 -43 96 -17 33 -33 64 -35 69 -5
11 87 -2 114 -16z m-545 -35 c14 -13 28 -23 32 -23 5 0 8 -14 8 -31 0 -26 -3
-30 -17 -24 -10 4 -30 10 -45 12 -14 3 -35 15 -46 27 -19 19 -19 24 -6 55 15
36 15 37 74 -16z m3514 16 c-19 -22 -146 -111 -151 -106 -1 2 4 21 11 42 14
41 59 75 101 75 11 0 27 4 35 10 23 14 25 2 4 -21z m490 -11 c-37 -120 -73
-169 -184 -245 -45 -31 -138 -68 -148 -59 -5 5 101 129 127 149 9 7 33 34 55
60 34 43 128 117 149 117 5 0 5 -10 1 -22z m-3246 -77 c41 -30 54 -51 31 -51
-7 0 -31 17 -53 38 -23 20 -55 47 -72 60 l-29 22 40 -19 c22 -11 59 -33 83
-50z m973 17 c18 -25 20 -34 11 -76 -6 -26 -16 -83 -22 -127 -37 -254 -67
-382 -96 -406 -21 -17 -28 30 -29 186 0 205 21 362 57 426 32 55 38 55 79 -3z
m1616 20 c-3 -7 -26 -65 -52 -128 -26 -63 -53 -120 -59 -127 -8 -9 -33 -10
-95 -4 -48 5 -97 5 -115 0 -45 -13 -51 -11 -33 9 10 10 29 47 43 83 49 121 51
123 157 143 51 9 100 21 108 27 21 13 52 11 46 -3z m953 3 c37 -10 31 -34 -10
-42 -19 -4 -69 -15 -110 -24 l-75 -16 -93 -110 -92 -109 -60 0 c-32 0 -61 4
-64 9 -3 5 13 20 37 34 40 24 177 158 177 175 0 12 65 52 117 72 49 18 128 24
173 11z m-4365 -21 c3 -5 28 -20 56 -31 57 -25 109 -79 109 -115 0 -14 9 -43
20 -64 21 -41 14 -52 -15 -23 -9 9 -35 40 -57 70 -36 47 -48 56 -99 71 -62 18
-68 27 -49 76 10 27 24 33 35 16z m207 -34 c11 -17 28 -37 37 -44 32 -26 151
-145 151 -151 -1 -10 -79 -61 -93 -61 -25 0 -84 77 -97 127 -8 26 -26 69 -42
94 -15 25 -28 53 -28 61 0 26 48 9 72 -26z m171 -15 c56 -27 125 -59 152 -71
l50 -22 -65 -33 c-71 -36 -73 -36 -130 15 -19 17 -59 50 -88 72 -47 37 -72 65
-72 82 0 18 63 0 153 -43z m4030 -1 c3 -14 -1 -24 -15 -31 -34 -18 -130 -49
-152 -49 -13 0 -44 -22 -75 -54 -52 -52 -105 -85 -117 -73 -8 8 134 175 154
181 9 3 45 10 79 15 35 5 71 14 80 20 27 16 40 13 46 -9z m-1343 -5 c0 -2 -12
-30 -27 -62 -34 -73 -74 -126 -116 -151 -50 -31 -326 -112 -380 -112 -27 0
-62 -7 -78 -16 -60 -30 -49 -7 28 59 83 73 257 166 458 247 100 39 115 44 115
35z m-3050 -60 c45 -23 138 -120 126 -132 -5 -5 -51 20 -138 77 -43 27 -68 50
-68 62 0 25 21 23 80 -7z m1890 -47 c19 -29 54 -77 77 -108 51 -69 89 -143 98
-193 7 -34 2 -45 -61 -139 -109 -162 -171 -212 -214 -173 -23 21 -27 95 -10
155 17 57 38 217 44 340 7 124 14 170 24 170 4 0 23 -24 42 -52z m2524 30 c10
-39 7 -43 -46 -75 -45 -27 -64 -32 -123 -34 -38 -1 -78 -6 -87 -11 -25 -13
-22 2 10 40 21 25 49 40 122 66 117 41 116 41 124 14z m-4383 -79 c53 -35 111
-72 128 -81 45 -25 40 -40 -11 -32 -61 10 -237 130 -238 163 0 29 3 28 121
-50z m955 52 c19 -12 53 -55 85 -107 72 -119 72 -119 45 -150 l-23 -27 -74 60
c-98 81 -113 98 -144 166 -27 62 -26 63 30 70 17 2 35 5 40 5 6 1 24 -7 41
-17z m605 -111 c-18 -73 -19 -90 -9 -195 6 -63 8 -118 4 -122 -20 -20 -89 106
-101 182 -5 28 -10 57 -11 65 -6 31 40 116 85 157 45 41 46 42 49 17 2 -13 -6
-60 -17 -104z m-740 32 c32 -86 39 -94 138 -170 67 -51 72 -57 49 -60 -59 -7
-157 58 -287 192 -46 48 -82 88 -80 90 8 7 105 24 129 23 21 -2 28 -13 51 -75z
m-197 8 c20 -23 41 -38 46 -35 5 3 7 0 5 -7 -3 -8 10 -29 30 -48 19 -19 35
-37 35 -41 0 -10 -59 -1 -127 18 -52 14 -173 85 -173 102 0 11 39 37 65 44 58
14 82 7 119 -33z m-661 -27 c37 -26 63 -49 57 -51 -5 -2 -43 4 -85 13 -78 18
-82 22 -69 73 8 28 14 26 97 -35z m4441 25 c8 -39 5 -42 -33 -33 -37 8 -39 20
-8 46 30 25 34 24 41 -13z m-3988 -69 c16 -17 46 -40 68 -51 l39 -20 -27 -26
-26 -27 -87 47 c-49 25 -88 51 -88 57 0 11 61 49 81 50 5 1 23 -13 40 -30z
m2790 21 c13 0 24 -5 24 -12 0 -20 -53 -120 -66 -125 -16 -6 -131 35 -167 60
-33 22 -26 36 32 68 28 15 48 18 95 14 32 -3 70 -5 82 -5z m1207 -7 c4 -3 -2
-16 -14 -30 -26 -27 -36 -26 -131 8 -82 30 -65 43 45 35 50 -4 95 -9 100 -13z
m-1034 -9 c4 -9 -71 -57 -109 -69 -20 -6 -21 -4 -15 17 17 53 33 66 78 63 23
-1 44 -6 46 -11z m166 1 c-44 -19 -95 -28 -95 -17 0 15 43 31 85 31 l40 -1
-30 -13z m-3573 -27 c38 -11 65 -24 62 -29 -3 -5 -10 -9 -16 -9 -6 0 -19 -7
-29 -16 -16 -14 -22 -13 -78 16 -44 23 -61 38 -61 52 0 23 3 22 122 -14z
m4258 -4 c27 -13 60 -24 72 -24 13 0 30 -5 38 -10 13 -8 13 -11 0 -23 -8 -8
-44 -26 -79 -41 l-65 -27 -85 16 -86 17 -65 -31 c-36 -17 -71 -31 -78 -31 -30
0 -23 34 19 94 41 59 47 64 89 70 25 3 65 10 90 15 56 11 86 6 150 -25z m-490
1 c0 -2 -5 -17 -12 -32 -19 -45 -59 -83 -87 -83 -14 0 -51 -18 -82 -40 -32
-22 -60 -40 -63 -40 -16 0 33 91 88 163 17 21 156 51 156 32z m122 -5 c38 0
39 -1 24 -21 -20 -29 -78 -67 -128 -85 -44 -15 -57 -13 -41 8 6 7 16 31 23 53
18 57 19 58 52 51 17 -3 48 -6 70 -6z m558 -16 c0 -8 -5 -12 -10 -9 -6 4 -8
11 -5 16 9 14 15 11 15 -7z m-4520 -25 c27 -17 50 -37 50 -45 0 -19 -9 -18
-64 6 -37 17 -46 26 -46 45 0 14 2 25 5 25 3 0 27 -14 55 -31z m330 -4 c18
-22 3 -32 -57 -37 -53 -5 -63 1 -63 38 0 21 103 19 120 -1z m3280 -1 c0 -3
-20 -37 -45 -75 -24 -38 -54 -87 -65 -109 -17 -33 -26 -40 -49 -40 -28 0 -41
11 -102 87 -39 48 -39 47 121 104 102 36 140 45 140 33z m915 -18 c2 -6 6 -28
9 -48 l5 -38 -53 0 c-61 0 -116 9 -116 20 0 3 22 17 50 30 27 13 52 31 55 41
6 19 44 15 50 -5z m-4332 -6 c7 -29 -18 -46 -48 -32 -31 14 -32 26 -2 40 33
16 44 14 50 -8z m2885 -25 c39 -16 72 -31 72 -36 0 -7 -31 -18 -135 -48 -22
-7 -73 -18 -113 -25 -80 -15 -82 -17 -167 -131 -64 -86 -61 -80 -83 -150 -32
-99 -74 -209 -90 -232 -16 -25 -32 -30 -32 -10 0 7 -20 76 -44 153 -24 76 -51
164 -60 194 -9 30 -27 74 -41 97 -26 46 -25 47 23 58 18 4 77 25 130 47 53 22
149 57 212 79 101 34 124 39 185 35 43 -2 97 -14 143 -31z m-3064 -16 c18 -17
18 -19 3 -25 -10 -3 -33 -3 -52 0 -28 6 -35 12 -35 30 0 12 3 25 6 29 8 8 54
-12 78 -34z m831 1 c28 -5 61 -13 75 -19 37 -14 94 -67 82 -75 -23 -14 -168
-56 -195 -56 -43 0 -80 24 -123 80 -21 27 -42 50 -47 50 -5 0 -7 6 -5 12 9 27
85 29 213 8z m-720 -3 c24 -18 11 -37 -24 -37 -36 0 -43 8 -28 31 14 22 27 24
52 6z m371 -8 c14 -11 14 -13 -1 -21 -19 -11 -156 22 -148 35 8 13 130 2 149
-14z m-169 -4 c28 -8 68 -22 89 -31 l38 -16 -31 -19 -30 -19 -78 32 c-95 40
-104 55 -44 67 3 0 28 -6 56 -14z m3935 -23 c10 -10 -117 -132 -137 -131 -21
0 -126 82 -117 91 5 5 36 20 68 34 47 20 71 24 118 20 32 -2 63 -9 68 -14z
m-4065 0 c11 -7 38 -101 31 -107 -2 -2 -27 -5 -56 -7 -57 -5 -63 -1 -80 50
-10 30 -10 32 12 32 13 0 34 9 47 20 27 22 29 23 46 12z m-209 -11 c19 -11 -1
-42 -41 -66 -29 -17 -30 -17 -24 -1 4 10 7 31 7 47 0 23 4 29 23 29 12 0 28
-4 35 -9z m604 -44 c8 -18 32 -52 52 -75 33 -40 39 -62 16 -62 -14 0 -116 87
-135 116 -17 27 -17 27 6 44 29 22 42 17 61 -23z m3327 34 c17 -11 -8 -25
-123 -71 -118 -46 -129 -41 -68 34 l37 46 70 0 c39 0 76 -4 84 -9z m559 -8
c39 -4 62 -10 62 -18 0 -7 -35 -33 -78 -58 l-79 -45 -71 15 c-40 9 -72 20 -72
25 0 5 17 30 38 54 37 44 38 45 87 39 28 -3 78 -8 113 -12z m-4412 -20 c3 -16
8 -34 10 -42 7 -23 -16 -31 -91 -30 -58 0 -67 2 -51 12 11 7 38 29 60 49 49
45 64 47 72 11z m3619 -25 c-37 -59 -51 -68 -109 -68 -44 0 -48 2 -36 14 19
19 164 106 168 101 2 -2 -9 -23 -23 -47z m-3374 21 c27 -12 49 -25 49 -29 0
-9 -47 -30 -69 -30 -18 0 -41 37 -41 65 0 19 2 19 61 -6z m3017 -51 c40 -39
71 -72 70 -73 -2 -1 -37 -15 -78 -31 -77 -29 -90 -30 -286 -23 -60 3 -76 -1
-110 -22 -59 -36 -113 -59 -119 -49 -10 16 104 127 157 154 80 39 261 114 278
115 9 1 48 -31 88 -71z m-1950 48 c40 -21 64 -52 117 -150 27 -49 75 -121 107
-159 60 -72 78 -111 60 -129 -8 -8 -25 -2 -58 17 -70 41 -128 103 -248 268
-15 20 -45 46 -67 57 -32 17 -39 26 -39 49 0 22 7 32 33 45 40 19 60 20 95 2z
m-810 -107 c60 -63 61 -66 44 -82 -18 -16 -22 -13 -86 68 -37 47 -73 85 -79
85 -7 0 -3 7 8 15 17 14 21 13 35 -2 9 -10 44 -48 78 -84z m3454 55 c35 -25
64 -49 66 -53 1 -4 -25 -27 -59 -51 l-62 -44 -74 40 c-41 21 -81 46 -89 55
-14 15 -10 20 38 46 57 32 98 51 110 52 5 1 36 -20 70 -45z m-3553 -48 c52
-70 81 -118 81 -133 0 -30 -102 -5 -145 34 -11 10 -41 36 -67 57 -53 43 -59
56 -25 56 12 0 40 9 62 19 22 11 43 20 47 20 4 1 25 -23 47 -53z m4071 9 c0
-37 -3 -45 -19 -45 -31 0 -82 22 -78 34 3 11 75 56 90 56 4 0 7 -20 7 -45z
m-3356 20 c16 -12 17 -22 12 -72 -4 -32 -14 -86 -22 -121 -10 -46 -11 -74 -4
-105 13 -58 14 -57 -22 -45 -55 19 -155 89 -236 166 -20 18 -69 42 -116 57
-40 12 -41 12 -16 23 57 24 271 96 315 105 40 9 70 6 89 -8z m-1089 -35 c8
-16 15 -32 15 -36 0 -3 -35 -4 -77 -1 -43 4 -86 6 -95 7 -18 0 -26 39 -11 53
3 4 39 7 79 7 71 0 74 -1 89 -30z m207 -55 c41 -42 72 -77 70 -79 -5 -5 -100
27 -138 47 -27 14 -104 89 -104 102 0 3 22 5 49 5 48 0 51 -2 123 -75z m996
29 c12 -8 29 -31 37 -50 24 -58 87 -145 158 -220 37 -39 67 -76 67 -82 0 -20
-57 -42 -105 -42 -56 0 -95 17 -153 68 -42 36 -44 41 -49 104 -6 73 5 238 16
238 3 0 17 -7 29 -16z m3027 7 c7 -13 -27 -31 -59 -31 -29 0 -76 19 -76 32 0
11 127 10 135 -1z m-715 -6 c0 -3 -11 -23 -25 -44 l-24 -39 -47 14 c-58 17
-58 17 -45 43 11 19 21 22 119 29 12 1 22 0 22 -3z m151 -16 c78 -30 159 -71
159 -80 0 -4 -24 -21 -52 -37 -41 -23 -62 -28 -93 -25 -45 5 -177 53 -173 63
2 3 12 27 23 53 18 42 23 47 52 47 18 0 56 -9 84 -21z m416 -23 c-6 -17 -125
-76 -141 -70 -29 11 -16 29 46 66 50 30 64 34 80 25 10 -7 17 -16 15 -21z
m243 25 c19 -6 54 -15 78 -21 39 -10 43 -14 40 -38 -3 -26 -5 -27 -88 -34 -80
-7 -86 -6 -117 18 -33 25 -42 44 -22 44 6 0 22 9 36 20 30 23 27 23 73 11z
m-2142 -63 c50 -103 82 -250 82 -376 0 -88 -9 -107 -55 -122 -33 -11 -40 -9
-75 14 -26 17 -47 43 -65 82 -29 62 -29 61 -7 274 9 90 49 190 76 190 7 0 27
-28 44 -62z m-2118 1 c52 -21 96 -42 98 -47 1 -5 -16 -12 -38 -16 -24 -4 -52
-17 -66 -31 -14 -14 -28 -25 -32 -25 -4 0 -48 16 -99 36 -95 38 -103 45 -103
106 l0 27 73 -6 c50 -4 101 -18 167 -44z m4154 -45 c11 -7 18 -15 15 -17 -12
-8 -116 -47 -126 -47 -16 0 -103 42 -103 50 0 3 28 20 63 37 l62 31 35 -20
c19 -10 44 -26 54 -34z m-3389 -87 c87 -84 116 -105 222 -159 117 -60 121 -63
90 -70 -44 -9 -122 -1 -155 16 -15 8 -61 24 -102 36 -97 29 -120 41 -210 108
-76 57 -89 70 -111 109 -10 19 -8 27 15 57 l26 35 63 -18 c56 -16 72 -28 162
-114z m3615 69 c0 -25 -18 -49 -49 -65 -12 -7 -26 -1 -56 24 -21 19 -37 37
-34 39 8 8 80 24 112 25 22 1 27 -3 27 -23z m-541 10 c-26 -24 -102 -76 -112
-76 -20 0 76 79 97 80 11 0 17 -2 15 -4z m-3971 -45 c45 -19 82 -40 82 -45 0
-6 -7 -19 -14 -29 -12 -16 -18 -17 -38 -6 -13 7 -45 18 -73 24 -50 11 -50 12
-53 54 -2 24 0 41 5 40 4 -2 45 -20 91 -38z m3444 21 c4 -4 -27 -25 -70 -47
-114 -57 -187 -111 -231 -170 -34 -45 -55 -60 -133 -98 -51 -24 -133 -55 -183
-68 -79 -20 -97 -29 -150 -74 -93 -80 -141 -97 -102 -37 31 50 48 94 73 190
40 157 50 174 124 212 25 13 59 33 75 46 52 39 87 48 215 55 147 8 370 3 382
-9z m655 -46 c33 -24 82 -51 110 -60 27 -9 59 -23 69 -31 18 -13 17 -15 -16
-44 -56 -48 -93 -56 -201 -40 -90 14 -93 15 -100 43 -5 17 -20 40 -34 53 -14
13 -25 27 -25 32 0 11 110 91 125 91 7 0 39 -20 72 -44z m277 12 c25 -18 45
-36 45 -39 1 -3 -19 -17 -44 -30 l-45 -24 -65 34 c-68 35 -77 45 -47 55 9 3
33 12 52 20 50 20 55 20 104 -16z m-3940 13 c59 -14 62 -23 31 -83 -15 -29
-28 -54 -30 -56 -4 -5 -132 41 -179 65 -27 14 -61 27 -75 30 -33 5 -49 21 -30
27 63 23 217 32 283 17z m3214 -26 c175 -65 178 -69 45 -79 -109 -8 -187 -21
-283 -45 -101 -26 -190 -39 -196 -30 -6 10 36 37 175 114 56 31 103 61 107 66
10 17 55 9 152 -26z m-3014 -48 c22 -24 56 -55 75 -70 18 -15 31 -30 28 -34
-10 -10 -140 -3 -192 10 -44 11 -50 15 -48 37 2 20 75 100 92 100 2 0 22 -19
45 -43z m3866 18 c0 -8 -4 -15 -10 -15 -5 0 -10 7 -10 15 0 8 5 15 10 15 6 0
10 -7 10 -15z m-4334 -5 l27 -11 -48 -30 c-57 -36 -79 -27 -44 20 25 35 27 35
65 21z m-173 -30 c40 -19 33 -38 -20 -53 -55 -16 -63 -11 -63 45 0 35 1 36 28
28 15 -4 39 -13 55 -20z m4478 10 c14 -8 19 -21 18 -53 -3 -103 -26 -133 -53
-68 -8 23 -25 46 -36 53 -28 18 -25 29 13 55 39 26 34 25 58 13z m-4141 -64
c46 -19 86 -38 87 -43 2 -5 -8 -22 -21 -36 -23 -25 -29 -26 -88 -20 -67 6
-154 39 -176 66 -11 13 -8 19 25 41 49 33 70 32 173 -8z m3541 7 c27 -16 32
-24 27 -40 -6 -14 -64 -11 -81 4 -16 15 -16 17 -1 35 21 22 19 22 55 1z
m-3812 -16 c15 -18 -9 -39 -72 -62 -53 -20 -55 -19 -59 15 -3 21 4 27 47 42
63 21 70 21 84 5z m4314 -8 c13 -6 33 -31 44 -55 19 -41 19 -44 3 -59 -15 -14
-25 -15 -62 -5 -52 13 -118 41 -118 49 1 5 100 81 107 81 1 0 13 -5 26 -11z
m-606 -41 l25 -25 -80 -47 c-44 -26 -95 -51 -114 -56 -59 -17 -173 -11 -290
16 -150 34 -146 33 -128 44 41 26 271 79 390 90 125 12 168 7 197 -22z m-3623
-39 c4 -4 -7 -15 -25 -25 -19 -9 -45 -27 -58 -40 -13 -14 -36 -24 -52 -24 -15
0 -34 -3 -43 -6 -12 -5 -17 3 -22 33 -3 21 -5 43 -4 48 1 6 34 22 73 36 l72
25 25 -20 c14 -11 29 -24 34 -27z m446 24 c23 -9 -26 -21 -87 -22 -53 -1 -67
11 -43 35 10 10 88 2 130 -13z m3328 -41 c4 -24 -9 -28 -40 -11 -21 11 -21 12
-3 25 25 18 39 13 43 -14z m147 13 c106 -18 285 -89 285 -114 0 -4 -60 -5
-132 -3 -118 4 -139 7 -190 30 -50 24 -57 31 -60 60 -5 40 -1 44 32 38 14 -3
43 -8 65 -11z m-3716 -51 c9 -8 -25 -36 -87 -71 -59 -34 -78 -39 -157 -45 -49
-3 -99 -8 -109 -10 -15 -2 -22 5 -30 30 -11 39 1 52 49 52 17 0 40 7 53 15 45
32 95 42 187 37 50 -2 92 -6 94 -8z m543 -2 c18 -10 43 -24 56 -31 19 -10 21
-15 11 -27 -6 -8 -20 -12 -30 -9 -39 13 -217 -91 -343 -199 -32 -28 -91 -79
-130 -113 -70 -62 -72 -63 -129 -63 -49 0 -58 3 -55 17 2 9 23 27 48 40 77 41
87 50 151 144 63 91 131 152 258 229 55 34 116 38 163 12z m2980 -12 c31 -13
71 -48 123 -105 l77 -85 -54 -25 c-92 -43 -183 -29 -271 42 -31 26 -57 52 -57
59 0 12 119 134 131 134 4 0 27 -9 51 -20z m-3262 -8 c3 -2 -8 -14 -25 -26
-60 -42 -102 -95 -148 -184 -42 -81 -53 -94 -100 -121 -28 -16 -55 -27 -58
-23 -4 4 -3 43 2 86 10 84 52 179 112 252 l28 34 92 -7 c51 -3 94 -8 97 -11z
m3845 -14 c-10 -43 -13 -48 -34 -48 -19 0 -41 18 -41 35 0 9 52 40 73 44 5 0
5 -14 2 -31z m-2752 -11 c52 -22 185 -149 214 -204 15 -28 25 -55 21 -58 -3
-4 -30 12 -59 35 -104 82 -182 106 -379 116 -63 3 -146 14 -185 24 -38 11 -88
22 -110 26 l-40 7 40 7 c22 3 56 15 75 25 19 10 49 21 65 25 53 12 328 9 358
-3z m2502 -38 c158 2 160 2 194 -23 37 -27 34 -31 -29 -40 -96 -15 -129 -16
-170 -9 -33 6 -53 5 -74 -6 -28 -13 -30 -13 -72 34 -48 52 -53 61 -26 49 9 -4
89 -6 177 -5z m-970 -29 c24 -11 56 -30 71 -43 16 -13 58 -37 94 -54 102 -47
166 -112 216 -218 32 -68 61 -110 119 -174 97 -106 150 -186 165 -254 7 -28
26 -75 42 -104 22 -39 27 -57 19 -70 -12 -23 -241 -250 -301 -298 -25 -20 -54
-44 -65 -53 -11 -10 -39 -30 -62 -45 -42 -29 -42 -29 -130 -18 -48 5 -117 13
-153 16 -107 10 -237 61 -301 118 -14 12 -34 30 -45 39 -11 10 -65 29 -119 43
-179 47 -271 112 -327 231 -31 65 -33 76 -33 174 1 120 24 203 92 323 51 92
212 286 256 309 19 9 98 38 174 63 153 50 205 53 288 15z m-2941 -12 c-24 -45
-96 -116 -128 -124 -16 -4 -51 -1 -80 6 -28 6 -57 10 -65 8 -15 -3 -46 80 -35
91 3 3 56 5 117 4 104 -3 115 -1 152 22 53 32 59 31 39 -7z m901 -18 c33 -3
94 -21 137 -38 53 -22 93 -32 130 -32 72 0 218 -27 271 -49 61 -26 147 -84
183 -123 44 -46 60 -82 74 -163 25 -151 25 -165 -16 -320 -35 -135 -41 -151
-80 -193 -23 -26 -57 -54 -75 -63 -57 -27 -162 -59 -194 -59 -16 0 -86 -12
-155 -26 -112 -24 -144 -36 -316 -121 -105 -51 -205 -98 -222 -103 -28 -8 -38
-4 -96 38 -78 57 -256 212 -256 223 0 4 13 43 30 85 27 70 29 88 28 178 -2
110 9 149 79 265 18 30 33 63 33 72 0 19 71 159 145 286 25 43 67 97 93 121
46 42 48 43 97 36 28 -3 77 -10 110 -14z m2305 5 c105 -22 190 -64 268 -135
37 -33 91 -77 121 -97 30 -21 56 -43 58 -48 5 -16 -55 -43 -123 -56 -51 -9
-66 -9 -90 4 -48 25 -97 80 -134 150 -31 61 -40 69 -110 108 -152 86 -149 106
10 74z m-2614 -23 c-27 -53 -99 -123 -154 -150 -30 -14 -73 -43 -95 -63 -131
-114 -169 -139 -216 -140 -25 -1 -68 -2 -96 -3 -44 -1 -50 2 -50 19 0 16 11
21 71 30 49 7 84 19 110 38 97 67 136 97 220 163 89 72 188 134 212 134 10 0
9 -6 -2 -28z m3534 -17 c0 -16 -17 -19 -45 -9 -13 5 -14 8 -3 15 21 14 48 10
48 -6z m-52 -20 c23 -4 42 -11 42 -16 0 -5 -4 -9 -8 -9 -5 0 -8 -10 -8 -22 1
-17 -5 -24 -21 -26 -27 -4 -30 13 -5 27 25 15 10 13 -29 -3 -26 -11 -48 -12
-94 -5 -122 19 -141 50 -34 60 65 6 80 5 157 -6z m-247 -51 c11 -10 44 -18 84
-21 36 -3 65 -9 65 -12 0 -19 -67 -53 -123 -62 -34 -6 -78 -19 -98 -30 -50
-26 -57 -25 -117 19 -58 42 -63 52 -27 52 28 0 130 36 160 56 25 18 35 18 56
-2z m-4019 -18 c25 -8 49 -12 52 -9 3 4 6 1 6 -5 0 -6 -19 -38 -42 -71 -47
-69 -44 -70 -83 34 l-25 65 23 0 c12 0 43 -7 69 -14z m147 -62 c-5 -45 -13
-81 -21 -86 -7 -4 -37 -22 -67 -40 -43 -25 -55 -28 -62 -17 -12 20 -11 45 4
61 6 7 34 40 61 73 50 60 75 85 86 85 3 0 3 -34 -1 -76z m4125 25 c5 -4 2 -19
-8 -33 -14 -23 -24 -26 -70 -26 -29 0 -55 3 -58 6 -4 3 10 21 30 40 31 28 42
33 67 28 17 -3 34 -10 39 -15z m-3594 -68 c-11 -22 -31 -69 -44 -105 -37 -98
-69 -147 -139 -210 -34 -31 -80 -75 -103 -96 -22 -22 -43 -40 -46 -40 -4 0
-11 22 -17 49 -13 61 6 146 46 200 35 48 200 189 255 218 63 33 72 30 48 -16z
m3564 -17 c-3 -26 -18 -54 -28 -54 -14 0 -187 28 -225 36 -47 10 -5 23 84 26
134 4 170 3 169 -8z m-4096 -56 c-3 -7 -18 -14 -34 -16 -28 -2 -28 -2 -10 13
24 18 49 20 44 3z m3875 -25 c15 -15 27 -30 27 -35 0 -4 -24 -8 -54 -8 -29 0
-67 -5 -85 -11 -24 -9 -46 -8 -91 2 l-59 13 67 38 c60 34 72 38 117 32 35 -4
58 -13 78 -31z m134 -7 c37 -24 39 -34 17 -79 -23 -44 -21 -43 -49 -17 -36 34
-32 46 18 43 42 -2 42 -2 -9 8 -39 8 -54 16 -67 39 -9 15 -17 30 -17 33 0 13
77 -7 107 -27z m53 -2 c0 -8 -4 -14 -9 -14 -12 0 -32 26 -25 33 10 9 34 -4 34
-19z m-4062 -21 c-2 -12 -20 -21 -58 -30 -53 -11 -70 -10 -70 6 0 8 90 38 118
40 8 1 12 -7 10 -16z m3504 -22 c29 -11 69 -22 88 -26 19 -4 43 -9 53 -11 18
-6 63 -82 53 -92 -12 -12 -133 31 -171 60 -39 30 -92 88 -81 88 3 0 29 -9 58
-19z m435 -31 c9 -16 21 -30 25 -30 17 0 28 -40 17 -59 -11 -16 -25 -19 -125
-18 l-112 0 -5 31 c-3 17 -8 38 -11 46 -8 20 90 58 151 59 36 1 44 -3 60 -29z
m-3947 0 c0 -12 -48 -90 -55 -90 -2 0 -14 19 -26 41 -17 34 -18 43 -7 50 19
12 88 11 88 -1z m128 -6 c28 -4 52 -11 52 -17 0 -5 -10 -37 -22 -70 -17 -47
-32 -67 -71 -98 -27 -22 -53 -39 -57 -39 -10 0 -70 102 -70 119 0 6 15 34 33
61 35 54 38 55 135 44z m3555 -121 c29 -4 41 -12 48 -30 21 -57 4 -66 -60 -34
-33 17 -71 58 -71 77 0 3 10 3 23 0 12 -4 39 -10 60 -13z m277 -5 c0 -7 -9
-24 -19 -38 -18 -22 -22 -23 -48 -11 -47 21 -74 41 -68 51 9 15 135 13 135 -2z
m-101 -53 c53 -26 60 -35 38 -53 -8 -7 -19 -6 -37 3 -14 8 -35 14 -47 15 -41
0 -53 11 -53 46 0 31 2 33 24 24 14 -5 48 -21 75 -35z m-3689 -56 c11 -33 14
-60 9 -69 -12 -21 -46 -60 -53 -60 -7 0 -86 117 -86 128 0 11 92 63 104 59 5
-2 17 -28 26 -58z m184 -26 c-3 -38 -1 -88 5 -113 8 -37 6 -61 -11 -132 -14
-61 -24 -85 -32 -80 -7 4 -33 30 -60 59 l-48 52 18 46 c14 37 15 53 7 80 -11
34 -10 35 53 95 36 33 67 60 69 60 3 0 2 -30 -1 -67z m3369 37 c10 0 22 -12
29 -27 6 -16 19 -48 30 -72 11 -24 16 -47 11 -52 -15 -15 -100 34 -107 61 -3
14 -10 42 -15 63 -9 37 -8 39 12 33 12 -3 30 -6 40 -6z m126 -11 c35 -12 37
-17 17 -45 -14 -18 -15 -18 -45 10 -43 41 -32 56 28 35z m-33 -53 c22 -20 24
-27 15 -45 -17 -30 -26 -26 -39 18 -19 61 -15 64 24 27z m-3596 -82 c8 -22 -6
-84 -20 -84 -5 0 -18 14 -30 31 l-22 30 23 25 c26 27 39 27 49 -2z m3531 -9
c28 -15 29 -16 13 -40 -9 -14 -18 -25 -20 -25 -6 0 -34 58 -34 70 0 13 6 13
41 -5z m-1701 -331 c0 -29 -37 -87 -50 -79 -7 5 5 78 16 97 12 19 34 7 34 -18z
m-370 10 c0 -3 -9 -19 -20 -34 -12 -16 -32 -54 -46 -85 -23 -49 -33 -59 -83
-85 -39 -19 -70 -45 -96 -79 -22 -28 -41 -51 -43 -51 -10 0 12 98 29 132 32
62 259 240 259 202z m150 -3 c0 -12 -100 -102 -139 -124 -38 -22 -40 -9 -6 41
15 21 47 48 78 64 57 30 67 32 67 19z m125 -78 c7 -58 6 -62 -18 -78 -30 -19
-47 -62 -47 -119 0 -65 -14 -76 -39 -29 -17 34 -19 54 -16 138 2 53 5 99 7
100 2 2 23 19 48 39 52 41 55 38 65 -51z m368 17 c21 -43 27 -67 27 -120 0
-59 -3 -69 -26 -91 -29 -26 -67 -105 -58 -120 3 -5 12 -9 20 -9 8 0 14 -4 14
-10 0 -5 14 -25 30 -43 22 -25 30 -45 30 -71 0 -35 -1 -36 -35 -36 -24 0 -35
5 -35 14 0 8 -9 36 -20 61 -15 36 -18 51 -9 61 16 19 1 38 -17 23 -18 -15 -21
-12 -44 52 -31 84 -27 118 25 196 36 54 45 75 45 111 0 58 17 52 53 -18z m140
10 c97 -57 118 -77 96 -91 -30 -19 -75 -10 -111 24 -51 47 -95 117 -74 117 2
0 42 -22 89 -50z m-963 32 c0 -16 -228 -118 -239 -106 -3 3 17 26 44 50 40 35
58 44 90 45 22 0 51 5 65 9 34 11 40 11 40 2z m684 -36 c10 -39 -13 -89 -62
-133 -53 -49 -62 -51 -87 -23 -17 19 -16 21 26 72 94 116 112 128 123 84z
m434 -8 c32 -8 59 -25 90 -55 24 -25 42 -46 40 -49 -10 -10 -121 22 -125 36
-3 8 -22 30 -42 47 -39 36 -34 39 37 21z m-1388 -17 c-5 -11 -10 -31 -10 -45
0 -16 -9 -31 -23 -41 -42 -27 -244 -91 -255 -80 -3 2 8 15 24 27 16 12 55 47
87 77 40 38 71 58 105 67 71 19 85 18 72 -5z m-190 -21 c-24 -44 -133 -108
-186 -109 -12 -1 -34 -11 -49 -23 -27 -21 -28 -21 -61 -3 -42 23 -43 31 -3 40
34 8 79 27 149 65 51 28 141 59 153 53 4 -2 2 -13 -3 -23z m734 -45 c4 -14 3
-37 0 -52 -13 -51 -155 -206 -168 -185 -3 5 -8 34 -12 64 -6 48 -3 60 20 96
14 23 41 48 59 56 17 8 41 21 52 30 28 22 42 20 49 -9z m-370 -7 c-39 -68 -77
-105 -129 -127 -62 -26 -75 -23 -51 11 9 12 16 35 16 50 0 32 4 35 83 58 77
22 90 23 81 8z m1039 -59 c21 -34 37 -68 37 -75 0 -19 -32 -84 -41 -84 -4 0
-17 25 -28 55 -21 55 -29 165 -13 165 5 0 25 -28 45 -61z m387 30 c0 -11 -27
-12 -34 0 -3 4 -3 11 0 14 8 8 34 -3 34 -14z m-232 -16 c6 -16 14 -41 18 -56
6 -27 5 -28 -22 -21 -44 10 -87 34 -106 58 -24 30 -22 36 10 30 15 -3 38 -1
52 5 36 14 36 14 48 -16z m122 11 c38 -6 90 -47 77 -61 -10 -9 -87 16 -119 39
-30 21 -38 44 -12 34 9 -3 33 -9 54 -12z m-1510 -29 c0 -33 -53 -95 -99 -116
-25 -11 -53 -27 -63 -36 -10 -9 -25 -13 -34 -9 -14 5 -5 19 48 71 60 58 122
105 141 105 4 0 7 -7 7 -15z m1755 -3 c73 -8 102 -19 126 -48 13 -16 12 -17
-6 -9 -11 5 -71 11 -133 13 l-112 3 -16 31 -16 30 44 -6 c23 -4 75 -10 113
-14z m-1405 -1 c0 -6 -4 -12 -9 -15 -5 -3 -12 -18 -16 -33 -10 -43 -42 -79
-91 -107 -26 -14 -50 -26 -55 -26 -21 0 -6 32 41 87 61 71 130 121 130 94z
m446 -8 c17 -23 18 -43 2 -43 -7 0 -24 -9 -38 -20 -14 -11 -28 -20 -31 -20
-13 0 5 56 24 78 25 27 26 27 43 5z m1184 0 c0 -5 -14 -16 -31 -26 -30 -17
-33 -17 -50 -1 -30 27 -23 34 31 34 28 0 50 -3 50 -7z m-2282 -22 c-13 -22
-86 -37 -101 -22 -15 15 -4 23 40 31 68 14 75 12 61 -9z m152 -8 c0 -13 -84
-93 -98 -93 -16 0 -72 31 -72 40 1 17 34 43 62 50 43 10 108 12 108 3z m1059
-65 c1 -39 -29 -121 -49 -133 -21 -13 -36 13 -21 37 8 13 13 46 12 79 -1 49 2
60 21 73 21 15 23 15 30 -1 3 -10 7 -35 7 -55z m588 57 c19 -8 51 -15 69 -15
27 0 37 -5 46 -25 6 -14 26 -35 45 -46 18 -11 33 -25 33 -30 0 -23 -32 -18
-75 11 -25 17 -67 38 -93 47 -48 16 -72 36 -72 60 0 16 3 16 47 -2z m-1832
-25 c-3 -5 -10 -10 -16 -10 -5 0 -9 5 -9 10 0 6 7 10 16 10 8 0 12 -4 9 -10z
m1708 -31 c15 -16 27 -35 27 -43 0 -7 -18 -34 -41 -60 -22 -25 -44 -58 -48
-74 -5 -19 -15 -28 -33 -30 -25 -3 -26 -1 -30 60 -4 53 -1 69 18 100 13 20 26
48 30 62 8 33 37 28 77 -15z m351 12 l69 -29 -31 -16 c-17 -9 -37 -16 -44 -16
-16 0 -78 61 -78 77 0 18 6 17 84 -16z m141 20 c3 -6 -4 -15 -15 -21 -22 -12
-100 5 -100 22 0 11 107 10 115 -1z m-1035 -62 c0 -19 -6 -44 -14 -55 -14 -19
-15 -18 -61 4 -26 12 -45 28 -43 34 3 7 26 27 53 45 54 38 65 33 65 -28z
m-231 12 c17 -21 31 -42 31 -45 0 -4 -33 -22 -74 -40 -40 -19 -76 -39 -80 -45
-12 -18 -35 -13 -51 13 -15 23 -14 25 52 89 38 37 73 67 80 67 6 0 25 -18 42
-39z m583 -25 c31 -63 31 -65 18 -125 -8 -40 -18 -61 -27 -61 -10 0 -13 11
-12 38 2 26 -5 48 -24 75 -36 53 -43 93 -21 118 9 10 21 19 26 19 4 0 22 -29
40 -64z m-1092 44 c0 -14 -112 -120 -127 -120 -18 0 -63 22 -63 31 0 21 72 67
114 73 25 4 48 11 51 17 8 12 25 12 25 -1z m4 -101 c-37 -37 -53 -48 -69 -43
-11 4 -21 7 -23 9 -1 1 28 33 65 72 l68 70 3 -30 c3 -24 -5 -39 -44 -78z
m1324 92 c3 -8 -1 -12 -9 -9 -7 2 -15 10 -17 17 -3 8 1 12 9 9 7 -2 15 -10 17
-17z m-1078 -10 c0 -8 -14 -28 -75 -109 -16 -22 -34 -47 -40 -56 -7 -11 -18
-14 -32 -10 -34 9 -32 66 3 93 15 12 35 21 44 21 10 0 33 15 52 34 34 34 48
42 48 27z m1201 -6 c24 -8 58 -26 74 -39 l30 -24 -30 -12 c-40 -15 -70 -6 -96
33 -13 17 -27 34 -31 35 -11 5 -10 22 0 22 5 0 28 -7 53 -15z m-73 -24 c33
-28 28 -45 -8 -26 -30 15 -36 26 -23 38 8 9 7 10 31 -12z m-1571 -13 c-13 -21
-42 -26 -57 -11 -8 8 32 33 53 33 18 0 18 -2 4 -22z m1103 -54 c0 -6 -11 -21
-25 -34 -14 -13 -25 -29 -25 -36 0 -20 -18 -26 -40 -12 -27 17 -26 25 16 87
l37 54 18 -24 c10 -13 19 -29 19 -35z m-648 3 c-9 -10 -26 -37 -37 -59 -11
-22 -23 -39 -27 -39 -5 1 -19 1 -33 1 -39 0 -30 20 37 82 43 41 64 55 69 46 5
-7 1 -20 -9 -31z m1074 26 c-2 -10 -7 -33 -11 -51 -7 -34 -29 -52 -64 -52 -30
0 -26 11 19 69 41 51 66 66 56 34z m-1276 -11 c0 -10 -13 -31 -29 -46 -22 -21
-33 -26 -46 -19 -15 9 -12 14 22 46 43 41 53 45 53 19z m498 -55 c0 -35 3 -73
6 -85 7 -20 4 -22 -38 -22 -54 0 -56 7 -27 87 18 49 39 82 52 83 4 0 7 -28 7
-63z m874 37 c18 -11 5 -22 -37 -33 -56 -14 -61 -14 -57 7 7 41 11 44 50 37
20 -4 40 -9 44 -11z m-779 -15 c12 -7 24 -13 25 -15 2 -1 -9 -30 -24 -63 -19
-42 -34 -61 -46 -61 -15 0 -18 9 -18 59 0 91 12 106 63 80z m-336 -33 c21 -33
22 -34 3 -51 -14 -13 -29 -16 -56 -12 -20 3 -39 8 -41 11 -7 7 50 86 62 86 6
0 20 -15 32 -34z m643 -12 c28 -64 26 -71 -22 -77 -72 -10 -88 24 -40 86 15
20 31 36 35 37 4 0 17 -21 27 -46z m-485 -21 c-13 -67 -33 -78 -62 -36 -37 52
-37 52 9 73 64 29 66 28 53 -37z m661 -19 c-7 -18 -26 -18 -26 0 0 8 5 27 12
43 l12 28 4 -28 c2 -16 1 -35 -2 -43z m-1076 52 c0 -11 -19 -15 -25 -6 -3 5 1
10 9 10 9 0 16 -2 16 -4z m680 -14 c0 -3 -11 -25 -25 -49 -17 -27 -33 -43 -45
-43 -27 0 -25 8 10 63 20 32 34 45 45 41 8 -3 15 -9 15 -12z m-351 -67 c-3 -3
-20 -2 -38 1 -30 6 -31 7 -14 26 16 18 17 18 37 -1 11 -11 17 -23 15 -26z
m421 20 c28 -30 24 -36 -30 -42 -45 -5 -50 4 -22 42 21 30 23 30 52 0z"/>
</g>
</svg>
