<?xml version="1.0" standalone="no"?>
<!DOCTYPE svg PUBLIC "-//W3C//DTD SVG 20010904//EN"
 "http://www.w3.org/TR/2001/REC-SVG-20010904/DTD/svg10.dtd">
<svg version="1.0" xmlns="http://www.w3.org/2000/svg"
 width="675.000000pt" height="675.000000pt" viewBox="0 0 675.000000 675.000000"
 preserveAspectRatio="xMidYMid meet">

<g transform="translate(0.000000,675.000000) scale(0.100000,-0.100000)"
fill="#000000" stroke="none">
<path d="M3320 5090 c-8 -15 -8 -81 0 -238 16 -338 30 -555 34 -559 12 -12 45
776 34 800 -12 24 -55 22 -68 -3z"/>
<path d="M3206 4958 c-10 -14 -14 -35 -11 -57 3 -20 12 -92 20 -161 9 -69 17
-136 20 -150 2 -14 11 -81 21 -150 9 -69 21 -132 26 -140 6 -9 7 74 3 205 -3
121 -6 270 -6 330 -1 84 -5 114 -17 128 -20 23 -38 22 -56 -5z"/>
<path d="M3447 4949 c-11 -15 -15 -63 -17 -207 -1 -103 -3 -247 -5 -319 -3
-106 -2 -133 9 -133 9 0 15 22 20 73 4 39 18 151 31 247 40 286 43 323 31 343
-15 23 -52 22 -69 -4z"/>
<path d="M3112 4828 c-20 -20 -20 -20 68 -423 42 -189 43 -165 9 204 -11 118
-22 218 -25 222 -8 13 -38 11 -52 -3z"/>
<path d="M3545 4830 c-10 -16 -13 -42 -30 -260 -9 -113 -18 -224 -21 -247 -3
-24 -2 -43 3 -43 5 0 26 82 47 183 59 285 69 344 63 361 -7 18 -52 22 -62 6z"/>
<path d="M3021 4736 c-9 -11 -3 -45 28 -153 91 -319 99 -340 86 -248 -14 99
-66 398 -71 407 -8 12 -30 10 -43 -6z"/>
<path d="M3643 4738 c-4 -7 -8 -17 -10 -23 -2 -13 -30 -192 -43 -275 -5 -36
-14 -88 -18 -117 -11 -64 1 -61 18 4 11 44 38 139 91 327 11 38 18 75 15 83
-7 16 -42 17 -53 1z"/>
<path d="M2070 4575 c-27 -33 -24 -36 444 -459 124 -111 179 -147 105 -68 -20
20 -89 96 -154 167 -65 72 -128 139 -139 151 -40 40 -181 197 -189 210 -11 18
-51 18 -67 -1z"/>
<path d="M4541 4543 c-49 -51 -151 -164 -301 -333 -51 -58 -113 -126 -138
-152 -25 -26 -44 -50 -41 -52 5 -5 151 126 409 364 58 53 122 111 143 129 38
34 46 58 25 79 -22 22 -51 12 -97 -35z"/>
<path d="M2262 4568 c-7 -7 -12 -21 -12 -31 0 -19 24 -46 271 -302 69 -71 140
-145 156 -164 17 -20 32 -30 36 -24 5 8 -114 178 -143 203 -3 3 -41 52 -85
110 -140 186 -169 220 -190 220 -12 0 -26 -5 -33 -12z"/>
<path d="M4398 4568 c-33 -28 -399 -510 -392 -518 9 -9 457 462 462 486 8 35
-39 57 -70 32z"/>
<path d="M2422 4548 c-17 -17 -15 -45 7 -70 10 -13 49 -59 85 -103 37 -44 98
-116 136 -160 37 -44 77 -91 89 -105 42 -51 19 1 -40 91 -34 52 -83 128 -110
169 -122 188 -139 206 -167 178z"/>
<path d="M2552 4548 c-20 -20 -14 -35 51 -124 34 -47 69 -96 77 -108 42 -60
140 -187 140 -181 0 3 -25 49 -55 101 -30 53 -55 98 -55 100 0 9 -103 189
-118 207 -18 20 -24 21 -40 5z"/>
<path d="M4248 4549 c-9 -5 -41 -46 -71 -92 -74 -112 -227 -356 -227 -362 0
-8 70 72 206 235 71 85 132 157 136 158 5 2 8 14 8 27 0 29 -28 47 -52 34z"/>
<path d="M4113 4538 c-26 -34 -222 -400 -205 -383 5 6 60 80 122 165 61 85
118 163 126 173 8 10 14 26 12 35 -4 21 -41 28 -55 10z"/>
<path d="M2080 4395 c-20 -24 1 -57 66 -107 31 -24 71 -54 89 -68 59 -46 340
-256 354 -264 42 -26 -72 89 -323 325 -50 46 -100 94 -112 107 -25 26 -56 29
-74 7z"/>
<path d="M4558 4383 c-18 -15 -71 -64 -118 -108 -258 -247 -339 -328 -334
-336 5 -9 17 -2 100 64 80 63 197 152 238 182 96 69 196 157 196 174 0 17 -29
51 -43 51 -3 0 -20 -12 -39 -27z"/>
<path d="M4534 4221 c-21 -15 -93 -74 -159 -131 -66 -56 -144 -122 -173 -147
-29 -25 -51 -47 -49 -50 3 -2 70 38 149 89 78 52 180 118 226 147 83 54 100
79 70 109 -17 17 -20 16 -64 -17z"/>
<path d="M2107 4233 c-4 -3 -7 -16 -7 -28 0 -17 29 -41 128 -105 70 -46 146
-96 170 -112 24 -15 45 -28 47 -28 3 0 28 -16 55 -36 81 -58 68 -32 -22 44
-314 266 -347 290 -371 265z"/>
<path d="M4539 4092 c-45 -29 -326 -237 -344 -255 -13 -13 -15 -14 145 76 74
41 164 91 200 110 66 36 84 63 57 85 -11 9 -24 5 -58 -16z"/>
<path d="M2105 4100 c-3 -5 -4 -18 -1 -28 6 -16 40 -37 231 -140 44 -24 100
-55 124 -68 24 -13 45 -23 47 -21 6 5 -356 262 -375 265 -10 2 -22 -2 -26 -8z"/>
<path d="M3205 4095 c-102 -15 -203 -57 -315 -129 -82 -53 -154 -127 -227
-233 -156 -226 -178 -555 -52 -806 44 -88 142 -217 199 -263 22 -17 37 -34 33
-38 -3 -3 -6 -24 -5 -47 1 -28 -5 -51 -19 -70 -12 -17 -18 -37 -15 -46 4 -9 1
-20 -6 -25 -10 -6 -9 -8 3 -8 9 0 36 -18 60 -40 38 -34 50 -39 98 -42 l54 -3
-40 -46 c-88 -102 -110 -162 -87 -239 21 -71 39 -80 40 -20 0 35 8 60 28 90
15 23 29 40 31 38 2 -2 -1 -23 -6 -48 -22 -98 25 -235 115 -335 l46 -50 -25
68 c-34 93 -31 114 7 42 68 -128 220 -237 387 -280 87 -22 219 -36 261 -26
l35 7 -43 7 c-61 10 -160 57 -206 98 -104 91 -101 260 6 322 56 34 112 45 263
56 137 9 179 25 204 75 11 25 11 36 -8 92 -25 75 -26 102 -6 128 20 26 19 43
-4 63 -18 15 -18 19 -5 37 20 30 18 44 -16 83 -16 18 -30 39 -30 45 0 6 20 33
45 59 25 26 45 56 45 65 0 9 -16 31 -35 49 -28 27 -32 35 -21 45 42 34 137
231 162 335 22 93 18 284 -7 381 -21 80 -92 234 -133 289 -38 50 -122 130
-187 179 -165 124 -395 176 -624 141z m350 -35 c237 -59 459 -260 543 -493 92
-254 59 -511 -95 -744 -20 -29 -40 -53 -45 -53 -19 0 -19 30 1 67 50 98 68
278 41 410 -26 123 -113 271 -212 357 -62 54 -180 118 -258 139 -306 84 -630
-61 -772 -346 -55 -109 -71 -189 -65 -322 6 -133 28 -211 92 -313 25 -41 45
-77 45 -80 0 -16 -95 90 -137 151 -198 296 -184 678 34 950 101 126 249 225
403 272 107 33 304 35 425 5z m-215 -480 l0 -158 -72 -22 c-70 -21 -99 -42
-143 -104 -19 -26 -28 -29 -135 -43 -63 -8 -119 -19 -123 -23 -13 -12 32 -107
60 -125 14 -9 41 -23 61 -31 l37 -14 -40 4 c-35 3 -65 -10 -65 -28 0 -15 84
-50 135 -55 53 -5 60 -9 63 -29 3 -21 2 -22 -18 -10 -18 11 -23 10 -35 -6 -8
-10 -17 -39 -21 -65 -8 -53 -20 -81 -36 -81 -6 0 -33 14 -60 31 -27 17 -52 29
-55 25 -4 -4 1 -29 11 -56 19 -52 16 -78 -12 -103 -16 -15 -20 -12 -57 39 -46
63 -90 162 -112 254 -20 86 -11 223 22 328 59 188 240 359 437 413 52 14 140
27 151 22 4 -2 7 -75 7 -163z m219 129 c85 -28 190 -97 263 -174 65 -67 124
-178 153 -287 30 -113 11 -303 -42 -415 -8 -18 -18 -33 -22 -33 -4 0 -27 17
-51 37 -49 42 -79 101 -80 155 0 31 5 40 29 53 43 22 48 36 9 24 -37 -10 -43
-4 -53 50 -12 64 -63 160 -113 213 -46 49 -51 59 -66 138 -19 96 -53 175 -76
175 -9 0 -35 -40 -65 -103 -28 -57 -57 -107 -65 -112 -28 -18 -33 -10 -8 13
14 13 33 44 43 69 17 46 17 47 -5 77 -24 35 -36 39 -43 14 -3 -10 -5 18 -6 61
l-1 79 67 -6 c37 -4 96 -16 132 -28z m-39 -369 c-6 -11 -15 -18 -21 -14 -7 4
-6 10 1 19 6 7 14 62 18 122 l7 108 3 -108 c2 -63 -2 -115 -8 -127z m-33 -52
c-3 -8 -6 -5 -6 6 -1 11 2 17 5 13 3 -3 4 -12 1 -19z m-157 -51 c0 -11 -34 8
-50 28 -11 13 -8 13 18 -2 18 -10 32 -22 32 -26z m56 17 c-15 -14 -31 -23 -34
-20 -6 7 39 45 53 45 6 0 -3 -11 -19 -25z m-73 -68 c9 -6 17 -15 17 -19 0 -11
-69 30 -95 56 -20 20 -12 16 78 -37z m138 36 c-41 -29 -101 -63 -101 -58 0 7
104 76 115 75 6 0 -1 -8 -14 -17z m-225 -59 c-7 -7 -66 26 -66 37 0 5 16 0 35
-12 20 -11 34 -23 31 -25z m285 27 c-13 -11 -28 -20 -35 -20 -6 0 3 9 19 20
38 25 47 25 16 0z m-281 -45 c0 -6 -56 -35 -67 -35 -4 0 6 9 22 20 29 19 45
25 45 15z m85 -13 c-22 -20 -107 -72 -90 -55 14 15 97 73 104 73 3 0 -3 -8
-14 -18z m90 -7 c58 -34 86 -67 30 -36 -48 26 -93 60 -82 61 5 0 28 -11 52
-25z m102 -1 c18 -16 21 -22 8 -15 -32 15 -61 40 -48 41 7 0 25 -12 40 -26z
m-192 -69 c-16 -14 -34 -25 -40 -25 -5 1 4 12 20 25 17 14 35 25 40 25 6 -1
-3 -12 -20 -25z m75 5 c14 -11 20 -20 14 -20 -7 0 -22 9 -35 20 -31 25 -12 26
21 0z m-22 -262 c-2 -15 -10 -23 -23 -23 -13 0 -21 8 -23 23 -3 18 1 22 23 22
22 0 26 -4 23 -22z m0 -99 c4 -19 -19 -31 -38 -19 -18 11 -4 42 17 38 10 -2
19 -10 21 -19z m-388 -89 c0 -5 -4 -10 -10 -10 -5 0 -10 5 -10 10 0 6 5 10 10
10 6 0 10 -4 10 -10z m383 4 c9 -10 -4 -34 -18 -34 -17 0 -28 17 -20 30 7 11
28 13 38 4z m-423 -44 c12 -8 11 -10 -7 -10 -13 0 -23 5 -23 10 0 13 11 13 30
0z m420 -54 c0 -21 -21 -31 -30 -15 -5 7 -6 17 -4 21 9 14 34 9 34 -6z m0 -91
c0 -8 -6 -15 -14 -15 -17 0 -28 14 -19 24 12 12 33 6 33 -9z m-8 -80 c0 -5 -5
-11 -11 -13 -6 -2 -11 4 -11 13 0 9 5 15 11 13 6 -2 11 -8 11 -13z"/>
<path d="M3200 4014 c-91 -18 -144 -38 -222 -85 -128 -75 -247 -207 -303 -334
-47 -105 -85 -315 -57 -315 4 0 22 35 40 78 71 172 194 307 355 386 121 60
205 80 337 79 127 0 215 -20 323 -73 184 -92 277 -199 388 -445 l14 -30 3 50
c10 153 -80 357 -220 495 -172 170 -420 243 -658 194z m131 -14 c6 0 7 -5 3
-11 -4 -7 -1 -10 7 -7 8 3 13 12 11 19 -1 9 3 8 11 -3 18 -22 28 -23 20 -2 -5
14 -3 15 15 5 12 -7 22 -7 24 -1 5 15 83 -13 83 -30 0 -8 -4 -18 -10 -22 -5
-4 0 -6 11 -6 15 2 20 7 16 20 -2 10 1 18 7 18 6 0 11 -7 11 -15 0 -9 9 -15
23 -14 21 0 21 1 2 9 -24 10 -2 13 32 4 17 -5 22 -12 19 -33 -2 -17 2 -28 10
-28 6 0 10 6 7 13 -6 16 14 27 23 13 4 -8 3 -9 -4 -5 -14 8 -15 4 -6 -18 8
-20 24 -21 24 -2 0 8 5 18 12 22 7 5 8 3 3 -6 -6 -10 -4 -12 7 -7 12 4 14 1
11 -14 -3 -11 0 -19 6 -19 7 0 9 5 6 10 -3 6 1 10 9 10 10 0 13 -6 9 -17 -5
-12 -2 -15 10 -10 9 3 17 2 17 -3 0 -6 -7 -10 -15 -10 -32 0 -13 -16 19 -17
19 -1 39 -4 45 -8 19 -11 12 -33 -11 -38 -13 -2 -4 -5 19 -6 23 0 44 -5 47
-10 3 -4 -6 -7 -19 -5 -25 2 -34 -10 -15 -21 6 -3 10 -1 10 6 0 8 4 8 15 -1 8
-7 15 -19 15 -27 0 -8 4 -12 9 -8 5 3 12 1 16 -5 10 -16 -25 -12 -42 6 -13 12
-18 13 -24 3 -6 -10 -11 -5 -19 15 -5 15 -19 30 -29 33 -14 3 -17 12 -15 34 2
18 0 28 -6 24 -6 -3 -10 -17 -10 -31 0 -17 8 -27 26 -34 19 -8 25 -16 21 -30
-3 -11 -1 -18 4 -14 5 3 9 0 9 -7 0 -6 8 -9 20 -6 11 3 20 1 20 -4 0 -5 9 -9
20 -9 13 0 20 -6 19 -17 0 -11 -3 -13 -6 -5 -2 6 -10 12 -16 12 -6 0 -4 -8 6
-17 16 -16 18 -16 33 5 18 26 34 29 34 5 0 -13 -2 -15 -8 -5 -6 9 -12 5 -21
-15 -10 -23 -10 -26 0 -15 18 17 49 15 49 -4 0 -13 -3 -14 -14 -5 -10 9 -15 8
-20 -4 -3 -9 0 -15 10 -15 8 0 13 -4 10 -9 -4 -5 -1 -11 6 -13 7 -3 2 -7 -11
-11 -17 -4 -21 -2 -17 8 3 9 0 12 -10 8 -9 -3 -14 1 -14 11 0 9 -12 21 -26 26
-15 6 -22 14 -18 22 4 6 3 8 -3 5 -6 -4 -28 8 -49 26 -21 18 -51 39 -67 46
-20 11 -24 17 -15 24 9 6 8 7 -4 3 -10 -3 -38 3 -63 14 -25 11 -47 19 -50 20
-3 0 -21 7 -41 15 -20 8 -85 19 -145 25 -123 12 -188 5 -313 -34 -43 -14 -83
-23 -90 -22 -6 2 -7 1 -3 -2 5 -2 -6 -13 -23 -24 -24 -14 -35 -16 -45 -8 -10
9 -12 7 -9 -7 4 -13 -5 -24 -28 -38 -18 -10 -53 -38 -78 -61 -37 -34 -49 -40
-67 -33 -26 9 -31 44 -8 53 8 3 15 1 15 -4 0 -6 -4 -10 -10 -10 -5 0 -10 -8
-9 -17 0 -12 2 -13 6 -5 4 10 8 10 21 0 15 -11 15 -11 6 2 -14 20 5 59 26 52
13 -5 13 -3 1 12 -12 15 -17 15 -26 4 -5 -7 -17 -14 -25 -16 -8 -1 -4 6 9 16
16 13 20 21 11 24 -9 3 -8 7 4 17 14 12 16 12 10 -3 -7 -18 -4 -19 20 -10 13
5 14 9 5 20 -15 18 11 20 30 2 10 -11 11 -10 6 4 -4 9 -14 18 -22 20 -14 3
-13 5 2 18 11 9 16 10 11 3 -4 -7 -2 -13 3 -13 6 0 11 6 11 14 0 16 30 31 39
19 12 -15 51 -33 51 -23 0 5 -5 10 -11 10 -5 0 -7 5 -4 11 4 6 0 9 -11 7 -11
-2 -18 2 -17 9 2 8 -4 10 -14 6 -15 -6 -16 -5 -3 9 12 12 17 13 25 3 13 -16
45 -27 45 -16 0 5 -9 11 -20 14 -11 3 -20 11 -20 19 0 10 3 9 10 -2 6 -10 10
-11 10 -2 0 6 7 12 15 12 8 0 12 6 9 14 -6 15 11 16 34 3 7 -5 12 -3 12 7 0
19 19 21 26 3 3 -8 11 -14 19 -14 8 0 15 6 15 14 0 7 8 14 18 14 15 1 15 2 0
6 -19 5 -31 30 -18 38 6 4 10 0 10 -8 0 -7 7 -14 15 -14 8 0 15 7 15 15 0 8 6
12 14 9 10 -4 13 -1 9 9 -3 7 0 14 6 14 6 0 11 -6 11 -14 0 -8 7 -16 15 -20 8
-3 15 -1 15 4 0 6 -4 10 -10 10 -5 0 -10 5 -10 11 0 6 7 9 15 5 8 -3 15 -1 15
4 0 5 6 7 14 4 8 -3 24 -1 35 6 14 7 21 7 21 0 0 -5 6 -9 13 -7 6 1 11 -4 10
-10 -2 -7 2 -13 8 -13 7 0 9 10 5 26 -6 22 -4 25 9 20 9 -3 21 -6 26 -6z
m-567 -410 c7 -7 2 -10 -14 -10 -18 0 -21 -3 -12 -9 12 -7 12 -12 1 -30 -14
-21 -38 -24 -51 -6 -8 11 -1 25 13 25 6 0 8 -4 4 -9 -9 -16 9 -20 23 -5 7 8 8
14 2 14 -5 0 -10 7 -10 15 0 8 -4 15 -10 15 -5 0 -10 -5 -10 -12 0 -6 -2 -9
-5 -6 -3 3 -3 13 1 22 7 17 49 15 68 -4z m1196 -21 c0 -5 4 -8 9 -5 17 11 39
-18 31 -39 -8 -19 -9 -19 -9 3 -1 12 -4 21 -8 21 -19 -3 -31 2 -37 16 -3 8 -1
15 4 15 6 0 10 -5 10 -11z m-1260 -79 c-13 -23 -22 -27 -14 -5 5 11 2 13 -10
9 -9 -3 -16 -1 -16 5 0 6 11 11 25 11 23 0 24 -2 15 -20z m1350 -80 c6 -11 8
-20 6 -20 -3 0 -10 9 -16 20 -6 11 -8 20 -6 20 3 0 10 -9 16 -20z"/>
<path d="M3415 3983 c-19 -14 -18 -15 13 -11 22 3 32 0 32 -9 0 -14 12 -17 23
-7 7 8 -12 28 -33 36 -9 3 -25 -1 -35 -9z"/>
<path d="M3190 3954 c0 -14 3 -14 15 -4 8 7 15 14 15 16 0 2 -7 4 -15 4 -8 0
-15 -7 -15 -16z"/>
<path d="M3435 3950 c3 -5 8 -10 11 -10 2 0 4 5 4 10 0 6 -5 10 -11 10 -5 0
-7 -4 -4 -10z"/>
<path d="M3120 3925 c-7 -9 -9 -19 -5 -23 4 -4 10 -2 12 5 2 7 11 9 19 6 8 -3
14 1 14 11 0 20 -24 21 -40 1z"/>
<path d="M3545 3930 c-2 -3 0 -12 6 -20 5 -8 9 -10 9 -4 0 6 10 16 23 21 21
10 21 11 -6 9 -16 0 -30 -3 -32 -6z"/>
<path d="M3225 3920 c27 -12 43 -12 25 0 -8 5 -22 9 -30 9 -10 0 -8 -3 5 -9z"/>
<path d="M3497 3910 c3 -11 9 -17 14 -15 10 7 1 35 -11 35 -5 0 -6 -9 -3 -20z"/>
<path d="M3676 3875 c-9 -26 -7 -32 5 -12 6 10 9 21 6 23 -2 3 -7 -2 -11 -11z"/>
<path d="M3010 3856 c0 -2 7 -9 15 -16 9 -7 15 -8 15 -2 0 5 -7 12 -15 16 -8
3 -15 4 -15 2z"/>
<path d="M3620 3850 c0 -5 5 -10 11 -10 5 0 7 5 4 10 -3 6 -8 10 -11 10 -2 0
-4 -4 -4 -10z"/>
<path d="M3780 3818 c0 -4 7 -8 15 -8 8 0 15 4 15 8 0 5 -7 9 -15 9 -8 0 -15
-4 -15 -9z"/>
<path d="M2872 3748 c1 -24 6 -38 15 -38 7 0 13 7 13 15 0 8 -4 15 -10 15 -5
0 -10 7 -10 16 0 10 6 14 15 10 8 -3 15 0 15 7 0 7 -9 13 -20 13 -16 0 -19 -7
-18 -38z"/>
<path d="M2830 3695 c7 -8 17 -15 22 -15 6 0 5 7 -2 15 -7 8 -17 15 -22 15 -6
0 -5 -7 2 -15z"/>
<path d="M3820 3696 c0 -2 7 -7 16 -10 8 -3 12 -2 9 4 -6 10 -25 14 -25 6z"/>
<path d="M2806 3655 c4 -8 8 -15 10 -15 2 0 4 7 4 15 0 8 -4 15 -10 15 -5 0
-7 -7 -4 -15z"/>
<path d="M1908 3634 c-11 -10 -10 -42 0 -48 21 -13 484 -85 472 -73 -3 2 -63
21 -135 41 -71 20 -158 45 -192 56 -77 24 -136 34 -145 24z"/>
<path d="M4585 3589 c-88 -27 -180 -55 -205 -63 l-45 -14 45 5 c25 3 125 18
223 34 98 16 181 29 186 29 15 0 22 32 10 46 -17 20 -38 17 -214 -37z"/>
<path d="M1827 3549 c-9 -6 -17 -18 -17 -28 0 -39 22 -44 245 -61 224 -18 320
-23 314 -16 -5 5 -145 36 -230 51 -15 3 -73 16 -130 29 -147 34 -162 36 -182
25z"/>
<path d="M4820 3549 c-46 -9 -275 -59 -320 -69 -19 -4 -62 -13 -95 -20 -33 -6
-62 -14 -65 -17 -7 -6 134 -1 210 8 82 9 144 16 247 25 83 7 111 20 100 48 -9
23 -39 33 -77 25z"/>
<path d="M1695 3450 c-15 -17 -16 -24 -7 -45 10 -22 18 -25 64 -26 29 -1 76
-2 103 -3 57 -3 483 -8 503 -7 6 1 12 5 12 10 0 4 -48 14 -107 20 -121 14
-152 18 -238 31 -81 13 -287 40 -301 40 -6 0 -19 -9 -29 -20z"/>
<path d="M4830 3443 c-58 -7 -163 -22 -235 -33 -71 -11 -156 -23 -187 -26 -32
-4 -58 -11 -58 -16 0 -8 368 -3 535 7 22 2 61 3 86 4 38 1 48 5 57 26 10 21 8
27 -11 40 -25 18 -45 17 -187 -2z"/>
<path d="M1553 3329 c-17 -17 -16 -44 2 -59 18 -15 121 -15 387 0 95 5 231 13
301 16 71 4 123 10 115 14 -7 4 -96 10 -198 14 -182 7 -252 10 -480 21 -85 5
-118 3 -127 -6z"/>
<path d="M4855 3329 c-77 -4 -219 -10 -315 -14 -96 -4 -179 -11 -184 -16 -6
-5 8 -9 35 -10 24 0 71 -2 104 -4 33 -2 184 -9 335 -15 151 -6 280 -13 286
-15 18 -6 54 24 54 45 0 42 -29 44 -315 29z"/>
<path d="M1813 3222 c-121 -3 -140 -11 -129 -57 6 -22 11 -25 54 -25 72 0 620
74 631 86 5 5 -281 3 -556 -4z"/>
<path d="M4346 3221 c-4 -6 7 -12 26 -15 38 -7 245 -35 303 -41 73 -9 140 -17
160 -21 11 -2 55 -7 97 -10 77 -7 77 -7 89 20 11 23 10 29 -7 46 -17 17 -45
19 -340 25 -218 5 -324 3 -328 -4z"/>
<path d="M2105 3140 c-99 -10 -202 -20 -229 -22 -62 -7 -86 -39 -50 -69 13
-11 30 -10 102 5 134 26 362 77 412 91 l45 13 -50 0 c-27 -1 -131 -9 -230 -18z"/>
<path d="M4343 3154 c8 -8 216 -55 444 -100 89 -18 113 -12 113 27 0 26 -24
36 -110 43 -41 4 -118 11 -170 16 -176 17 -285 22 -277 14z"/>
<path d="M2225 3065 c-77 -13 -178 -29 -224 -37 -92 -15 -123 -37 -88 -62 15
-12 30 -10 100 9 137 37 360 105 365 110 6 6 17 7 -153 -20z"/>
<path d="M4351 3076 c2 -2 47 -16 99 -30 52 -14 148 -41 213 -61 93 -28 122
-33 133 -24 18 15 18 33 1 48 -8 6 -104 24 -215 41 -197 29 -240 34 -231 26z"/>
<path d="M1030 1866 c0 -10 -6 -13 -17 -10 -14 5 -15 4 -4 -4 15 -11 41 -5 41
8 0 5 -4 12 -10 15 -5 3 -10 -1 -10 -9z"/>
<path d="M5667 1866 c-3 -8 0 -17 7 -19 10 -4 12 1 9 14 -6 23 -9 24 -16 5z"/>
<path d="M981 1860 c0 -8 4 -24 9 -35 5 -13 9 -14 9 -5 0 8 -4 24 -9 35 -5 13
-9 14 -9 5z"/>
<path d="M5715 1837 c-5 -17 -16 -28 -33 -32 -18 -3 -35 -20 -50 -45 -17 -31
-29 -40 -50 -41 l-27 -1 25 -8 c14 -4 39 -8 55 -8 l30 0 -30 9 c-20 5 -6 7 45
4 115 -6 179 -16 245 -36 32 -10 61 -16 63 -14 2 2 -27 13 -65 25 -67 20 -109
27 -225 37 -32 3 -58 8 -58 13 0 15 42 60 56 60 14 0 39 48 30 58 -3 2 -8 -7
-11 -21z"/>
<path d="M1040 1794 c0 -3 9 -19 21 -35 l20 -29 -66 0 c-76 0 -194 -22 -272
-52 -78 -29 -60 -31 27 -4 72 23 102 28 257 42 l73 7 -22 38 c-19 34 -38 51
-38 33z"/>
<path d="M1437 1773 c-5 -25 -4 -26 8 -10 9 12 15 15 20 7 4 -6 13 -9 21 -6 8
3 14 1 14 -5 0 -18 -21 -50 -29 -45 -4 3 0 -18 10 -47 12 -37 14 -55 7 -64 -7
-9 -7 -13 1 -13 21 0 24 30 8 72 -15 36 -15 42 0 64 16 25 11 60 -8 49 -5 -4
-18 0 -28 9 -17 16 -19 15 -24 -11z"/>
<path d="M5250 1785 c-7 -8 -20 -14 -28 -13 -9 2 -17 -5 -18 -15 -1 -11 0 -12
3 -3 2 8 10 13 18 10 7 -3 16 0 20 6 5 8 11 5 20 -7 12 -16 13 -15 8 10 -6 32
-7 32 -23 12z"/>
<path d="M5254 1726 c-14 -11 -23 -12 -34 -3 -12 9 -13 8 -3 -2 8 -10 7 -24
-4 -60 -21 -63 -25 -66 -105 -97 -39 -16 -65 -30 -59 -32 18 -6 151 50 144 61
-3 5 4 6 18 2 19 -6 21 -5 12 5 -16 18 10 99 39 122 27 21 20 24 -8 4z"/>
<path d="M1133 1713 c9 -2 23 -2 30 0 6 3 -1 5 -18 5 -16 0 -22 -2 -12 -5z"/>
<path d="M1795 1700 c5 -15 3 -18 -8 -14 -21 8 -31 -14 -16 -32 10 -12 10 -20
1 -34 -9 -14 -8 -19 4 -24 9 -3 17 -6 18 -6 7 0 -7 56 -17 68 -5 7 -7 16 -3
19 4 4 11 1 17 -7 7 -12 10 -11 15 8 5 18 9 20 20 11 18 -15 18 -43 -1 -59 -9
-7 -14 -15 -11 -17 2 -3 13 3 24 13 16 14 18 22 11 44 -6 15 -21 32 -35 39
-23 10 -25 9 -19 -9z"/>
<path d="M4893 1708 c-12 -6 -25 -18 -28 -26 -5 -12 -1 -12 15 3 18 16 20 16
20 2 0 -10 3 -17 8 -17 4 0 7 11 7 25 0 14 0 25 0 24 0 0 -10 -5 -22 -11z"/>
<path d="M1200 1700 c14 -4 18 -9 10 -9 -9 -1 -5 -6 10 -15 24 -12 70 -3 56
11 -3 3 -12 0 -20 -6 -10 -8 -16 -9 -21 -1 -3 5 0 10 7 11 20 1 -25 18 -47 17
-16 0 -15 -2 5 -8z"/>
<path d="M5486 1701 c-18 -7 -18 -8 -2 -14 27 -11 43 -8 26 4 -11 7 -3 9 30 5
33 -4 38 -3 20 3 -31 11 -50 12 -74 2z"/>
<path d="M877 1684 c-9 -10 -9 -94 1 -94 32 1 53 91 22 97 -9 2 -19 1 -23 -3z
m29 -36 c-10 -53 -27 -60 -25 -10 2 29 7 42 17 42 11 0 13 -8 8 -32z"/>
<path d="M5430 1685 c0 -2 9 -9 19 -15 14 -7 22 -7 27 2 4 7 3 8 -4 4 -7 -4
-12 -2 -12 3 0 6 -7 11 -15 11 -8 0 -15 -2 -15 -5z"/>
<path d="M5795 1680 c-9 -14 5 -73 19 -82 22 -15 27 -7 24 39 -2 35 -7 49 -20
51 -9 2 -19 -2 -23 -8z m34 -42 c2 -50 -15 -43 -25 10 -5 24 -3 32 8 32 10 0
15 -13 17 -42z"/>
<path d="M1290 1670 c-8 -5 -10 -10 -5 -10 6 0 17 5 25 10 8 5 11 10 5 10 -5
0 -17 -5 -25 -10z"/>
<path d="M4936 1663 c-6 -14 -5 -15 5 -6 7 7 10 15 7 18 -3 3 -9 -2 -12 -12z"/>
<path d="M5405 1670 c3 -5 11 -10 16 -10 6 0 7 5 4 10 -3 6 -11 10 -16 10 -6
0 -7 -4 -4 -10z"/>
<path d="M1320 1660 c-8 -5 -10 -10 -5 -10 6 0 17 5 25 10 8 5 11 10 5 10 -5
0 -17 -5 -25 -10z"/>
<path d="M5375 1660 c3 -5 11 -10 16 -10 6 0 7 5 4 10 -3 6 -11 10 -16 10 -6
0 -7 -4 -4 -10z"/>
<path d="M1370 1650 c8 -5 20 -10 25 -10 6 0 3 5 -5 10 -8 5 -19 10 -25 10 -5
0 -3 -5 5 -10z"/>
<path d="M2077 1638 c-9 -31 -2 -33 11 -3 6 14 8 25 3 25 -5 0 -11 -10 -14
-22z"/>
<path d="M2153 1649 c14 -8 16 -14 6 -25 -6 -7 -16 -11 -23 -8 -6 3 0 -4 14
-15 l25 -21 -25 -20 -25 -20 -37 40 c-21 21 -38 35 -38 30 0 -6 14 -22 30 -37
17 -14 30 -35 30 -46 0 -20 0 -20 18 0 9 11 25 22 35 26 20 7 22 28 5 45 -9 9
-9 15 0 24 13 13 -1 38 -22 38 -6 0 -3 -5 7 -11z"/>
<path d="M4621 1643 c-1 -12 4 -25 9 -28 12 -7 12 2 0 30 -8 19 -9 19 -9 -2z"/>
<path d="M6010 1650 c8 -5 22 -9 30 -9 10 0 8 3 -5 9 -27 12 -43 12 -25 0z"/>
<path d="M1213 1633 c-10 -10 -14 -15 -9 -11 9 7 46 -28 46 -44 0 -5 -9 -6
-20 -3 -14 5 -20 2 -20 -10 0 -10 -5 -13 -12 -9 -8 5 -7 0 2 -11 13 -16 15
-16 18 -2 2 10 10 17 17 17 23 0 28 20 10 46 -9 13 -13 29 -10 34 10 15 -1 12
-22 -7z"/>
<path d="M2110 1639 c0 -5 5 -7 10 -4 6 3 10 8 10 11 0 2 -4 4 -10 4 -5 0 -10
-5 -10 -11z"/>
<path d="M4535 1641 c-3 -5 0 -13 6 -16 5 -4 8 -12 6 -19 -3 -6 7 -11 23 -11
31 0 31 2 -2 20 -13 6 -22 17 -20 23 2 14 -5 16 -13 3z"/>
<path d="M5285 1635 c-25 -12 -26 -14 -5 -9 28 7 60 23 45 23 -5 0 -23 -6 -40
-14z"/>
<path d="M5475 1640 c4 -6 1 -18 -6 -26 -10 -12 -9 -13 5 -8 9 3 16 11 16 16
0 6 8 4 18 -3 14 -11 13 -10 -2 9 -19 22 -43 31 -31 12z"/>
<path d="M1857 1618 c-25 -26 -18 -31 11 -8 12 10 19 20 15 23 -5 2 -16 -5
-26 -15z"/>
<path d="M4650 1622 c0 -10 -13 -31 -30 -47 -16 -16 -30 -36 -29 -44 0 -14 1
-14 6 -1 3 8 18 27 34 42 25 23 40 68 24 68 -3 0 -5 -8 -5 -18z"/>
<path d="M4826 1632 c-3 -6 7 -18 22 -27 l27 -18 -20 24 c-11 13 -21 25 -21
27 -1 2 -5 -1 -8 -6z"/>
<path d="M4920 1622 c0 -20 -35 -49 -52 -44 -5 1 -8 -3 -8 -9 0 -6 3 -9 8 -7
4 2 24 12 45 22 34 15 37 19 26 34 -7 9 -15 19 -16 21 -2 2 -3 -5 -3 -17z"/>
<path d="M1452 1616 c7 -8 17 -12 22 -9 4 3 2 9 -5 14 -22 13 -31 11 -17 -5z"/>
<path d="M5235 1610 c3 -5 8 -10 11 -10 2 0 4 5 4 10 0 6 -5 10 -11 10 -5 0
-7 -4 -4 -10z"/>
<path d="M1516 1591 c-3 -4 27 -20 67 -35 40 -16 85 -34 102 -41 16 -8 33 -11
37 -9 4 3 8 1 8 -5 0 -6 7 -7 17 -4 11 4 14 3 9 -5 -5 -8 -2 -10 9 -6 9 4 15
8 13 9 -3 3 -52 23 -210 86 -26 10 -49 15 -52 10z"/>
<path d="M1821 1574 c13 -16 29 -19 29 -5 0 5 -9 11 -21 14 -16 4 -18 3 -8 -9z"/>
<path d="M5450 1578 c0 -11 8 -18 19 -18 11 0 21 -7 23 -17 3 -14 5 -14 18 2
9 11 10 16 3 11 -9 -4 -13 -1 -13 9 0 12 -5 15 -17 11 -9 -4 -20 -1 -25 6 -6
10 -8 8 -8 -4z"/>
<path d="M4530 1574 c0 -7 11 -19 25 -28 14 -9 25 -12 25 -6 0 6 -8 14 -17 17
-10 4 -21 11 -25 17 -5 8 -8 8 -8 0z"/>
<path d="M1850 1548 c0 -3 11 -30 25 -60 14 -29 25 -44 25 -33 0 18 -49 110
-50 93z"/>
<path d="M4831 1510 c-12 -22 -18 -40 -13 -40 10 0 46 69 40 76 -3 2 -15 -14
-27 -36z"/>
<path d="M1595 1499 c-22 -42 -15 -44 12 -3 12 19 18 34 13 34 -5 0 -17 -14
-25 -31z"/>
<path d="M2396 1511 c-10 -11 -24 -17 -32 -14 -8 3 -14 1 -14 -4 0 -16 38 -12
45 5 6 15 8 15 21 -2 15 -21 17 -13 5 17 -6 17 -8 17 -25 -2z"/>
<path d="M5015 1520 c3 -5 8 -10 11 -10 2 0 4 5 4 10 0 6 -5 10 -11 10 -5 0
-7 -4 -4 -10z"/>
<path d="M5103 1496 c12 -18 23 -32 25 -31 6 6 -29 65 -38 65 -5 0 1 -15 13
-34z"/>
<path d="M4286 1504 c-10 -26 -7 -29 9 -8 14 19 15 19 21 -3 3 -13 11 -20 16
-17 9 6 -19 44 -32 44 -5 0 -11 -7 -14 -16z"/>
<path d="M4980 1516 c0 -2 7 -7 16 -10 8 -3 12 -2 9 4 -6 10 -25 14 -25 6z"/>
<path d="M2127 1504 c-11 -12 -8 -36 4 -28 8 4 9 0 4 -15 -4 -13 -2 -21 5 -21
7 0 10 -7 6 -15 -3 -8 -1 -15 4 -15 5 0 6 -7 3 -17 -4 -11 -3 -14 5 -9 16 9
15 -7 0 -22 -9 -9 -9 -12 0 -12 7 0 12 5 12 11 0 5 5 7 11 3 7 -4 6 3 -2 17
-7 13 -20 48 -28 77 -9 30 -19 50 -24 46z"/>
<path d="M4570 1496 c0 -8 5 -18 10 -21 6 -3 10 1 10 9 0 8 -4 18 -10 21 -5 3
-10 -1 -10 -9z"/>
<path d="M4967 1499 c7 -7 15 -10 18 -7 3 3 -2 9 -12 12 -14 6 -15 5 -6 -5z"/>
<path d="M1780 1480 c-9 -6 -10 -10 -3 -10 6 0 15 5 18 10 8 12 4 12 -15 0z"/>
<path d="M1805 1470 c-4 -6 1 -7 11 -3 12 4 15 3 10 -5 -5 -8 -2 -10 9 -5 13
5 14 7 3 14 -17 11 -26 11 -33 -1z"/>
<path d="M2340 1463 c0 -7 14 -26 30 -43 17 -18 33 -45 37 -61 3 -16 9 -26 14
-23 5 3 6 16 3 30 -5 19 0 32 22 55 21 22 24 29 12 29 -9 0 -19 6 -21 13 -3 7
-6 5 -6 -5 -1 -10 4 -18 11 -18 6 0 1 -11 -11 -24 l-22 -24 -24 24 c-13 13
-29 32 -34 41 -6 10 -11 13 -11 6z"/>
<path d="M4271 1463 c-1 -6 -8 -13 -17 -15 -12 -2 -9 -9 13 -28 21 -19 23 -20
10 -4 -13 16 -15 23 -6 26 7 2 9 11 6 19 -3 7 -6 9 -6 2z"/>
<path d="M4552 1433 c-9 -28 -9 -40 0 -48 8 -7 9 -5 5 8 -4 9 -2 17 4 17 6 0
7 5 3 11 -3 6 -2 14 4 18 6 4 7 12 3 19 -5 8 -11 -1 -19 -25z"/>
<path d="M2391 1444 c0 -11 3 -14 6 -6 3 7 2 16 -1 19 -3 4 -6 -2 -5 -13z"/>
<path d="M4311 1444 c0 -11 3 -14 6 -6 3 7 2 16 -1 19 -3 4 -6 -2 -5 -13z"/>
<path d="M4810 1450 c0 -5 5 -10 11 -10 5 0 7 5 4 10 -3 6 -8 10 -11 10 -2 0
-4 -4 -4 -10z"/>
<path d="M1560 1425 c-11 -20 -11 -28 -1 -38 10 -9 11 -8 5 6 -3 9 -1 24 6 32
7 9 11 18 8 20 -3 3 -11 -6 -18 -20z"/>
<path d="M5122 1427 c-6 -12 -13 -34 -16 -49 -5 -23 -3 -28 14 -28 11 0 20 4
20 10 0 5 -6 7 -14 4 -11 -4 -12 2 -7 28 7 35 27 41 25 8 0 -11 3 -20 8 -20
12 0 9 33 -6 52 -12 16 -14 16 -24 -5z"/>
<path d="M4324 1413 c-27 -25 -79 -131 -70 -141 2 -2 7 6 11 17 3 12 11 18 17
15 6 -4 9 -1 6 7 -7 18 28 88 56 110 11 10 18 18 15 19 -3 0 -19 -12 -35 -27z"/>
<path d="M1592 1392 c4 -25 1 -32 -9 -28 -8 3 -11 1 -8 -4 3 -6 13 -10 20 -10
11 0 13 8 8 33 -8 43 -17 51 -11 9z"/>
<path d="M4695 1405 c-25 -12 -26 -14 -5 -9 28 7 60 23 45 23 -5 0 -23 -6 -40
-14z"/>
<path d="M1935 1403 c15 -12 17 -35 3 -30 -18 6 -50 -12 -43 -23 4 -6 18 -4
35 5 29 15 35 46 9 53 -8 2 -10 0 -4 -5z"/>
<path d="M2614 1388 l-19 -22 25 17 c30 21 41 22 34 2 -4 -8 -1 -22 5 -29 9
-11 7 -22 -9 -48 -11 -18 -20 -37 -20 -43 0 -5 12 9 26 33 20 34 23 46 14 57
-6 8 -9 23 -5 35 9 28 -26 27 -51 -2z"/>
<path d="M4049 1403 c-1 -5 -1 -12 0 -17 1 -6 -3 -20 -9 -31 -10 -18 -8 -28
13 -57 l24 -36 17 30 c10 16 16 31 14 34 -3 2 -11 -7 -18 -21 l-13 -24 -20 25
c-17 22 -18 29 -7 49 7 13 9 28 6 34 -12 19 13 12 34 -9 11 -11 20 -16 20 -11
0 11 -39 41 -52 41 -5 0 -9 -3 -9 -7z"/>
<path d="M4759 1408 c-6 -21 -5 -37 2 -32 5 3 7 9 4 14 -3 4 1 11 7 13 10 4
10 6 1 6 -7 1 -13 0 -14 -1z"/>
<path d="M1978 1383 c7 -3 16 -2 19 1 4 3 -2 6 -13 5 -11 0 -14 -3 -6 -6z"/>
<path d="M4515 1352 l-16 -27 20 23 c11 13 21 18 23 11 2 -7 9 -10 16 -8 8 3
5 8 -7 16 -17 10 -22 8 -36 -15z"/>
<path d="M4780 1376 c0 -3 9 -10 20 -16 11 -6 20 -8 20 -6 0 3 -9 10 -20 16
-11 6 -20 8 -20 6z"/>
<path d="M1776 1351 c-6 -10 -5 -83 2 -77 4 4 9 86 5 86 -1 0 -4 -4 -7 -9z"/>
<path d="M2796 1344 c-3 -9 -6 -22 -6 -30 0 -21 46 -64 67 -64 11 1 5 6 -14
15 -20 8 -35 23 -39 39 -8 32 5 55 18 32 5 -9 13 -16 18 -16 6 0 2 9 -7 20
-21 24 -29 25 -37 4z"/>
<path d="M3877 1340 c-9 -11 -13 -20 -7 -20 5 0 13 7 18 16 13 23 26 0 18 -32
-4 -16 -19 -30 -41 -40 -42 -17 -48 -18 -39 -1 4 6 -4 2 -18 -11 -45 -41 -34
-52 51 -50 l76 2 -65 3 c-36 2 -69 9 -75 14 -7 7 -7 10 0 8 20 -5 104 40 115
61 12 22 6 70 -8 70 -4 0 -15 -9 -25 -20z"/>
<path d="M4847 1353 c-3 -4 15 -6 39 -4 l44 3 -2 -41 c-1 -23 1 -44 5 -47 3
-3 5 16 4 43 l-2 48 -42 3 c-22 2 -43 -1 -46 -5z"/>
<path d="M1868 1343 c6 -2 9 -10 6 -15 -4 -7 -2 -8 5 -4 13 9 5 26 -12 25 -9
0 -8 -2 1 -6z"/>
<path d="M2427 1323 c-4 -3 -7 -11 -7 -17 0 -6 5 -5 12 2 6 6 9 14 7 17 -3 3
-9 2 -12 -2z"/>
<path d="M2600 1323 c0 -6 8 -17 18 -24 16 -13 16 -13 2 6 -8 11 -16 22 -17
24 -2 2 -3 0 -3 -6z"/>
<path d="M1810 1291 c-14 -13 -19 -21 -12 -17 7 4 12 1 12 -7 0 -8 10 -17 23
-21 24 -6 48 16 46 43 0 9 -5 4 -11 -11 -11 -30 -15 -33 -38 -18 -13 8 -13 13
-2 31 19 29 12 30 -18 0z"/>
<path d="M2860 1316 c0 -2 7 -7 16 -10 8 -3 12 -2 9 4 -6 10 -25 14 -25 6z"/>
<path d="M3284 1304 c-18 -15 -18 -15 3 -5 12 6 29 11 37 11 22 0 20 -20 -1
-20 -10 -1 -47 -17 -83 -36 -36 -19 -54 -32 -40 -28 14 3 44 17 67 30 23 13
51 24 62 24 14 0 21 6 21 20 0 25 -37 27 -66 4z"/>
<path d="M3367 1313 c-13 -12 -7 -33 8 -33 9 0 38 -12 66 -26 28 -14 53 -23
55 -21 2 2 -25 17 -61 33 -65 29 -87 52 -39 40 17 -5 23 -3 19 4 -7 11 -38 14
-48 3z"/>
<path d="M3825 1310 c-3 -6 1 -7 9 -4 18 7 21 14 7 14 -6 0 -13 -4 -16 -10z"/>
<path d="M4870 1310 c0 -5 5 -12 11 -16 6 -3 9 -15 6 -25 -6 -22 -1 -24 17 -6
11 11 9 17 -10 34 -13 12 -24 18 -24 13z"/>
<path d="M2218 1303 c7 -3 16 -2 19 1 4 3 -2 6 -13 5 -11 0 -14 -3 -6 -6z"/>
<path d="M2318 1303 c7 -3 16 -2 19 1 4 3 -2 6 -13 5 -11 0 -14 -3 -6 -6z"/>
<path d="M2250 1285 c-7 -8 -17 -12 -24 -8 -6 3 -8 3 -4 -2 4 -4 2 -15 -4 -24
-7 -9 2 -3 20 13 18 17 32 31 32 33 0 7 -8 2 -20 -12z"/>
<path d="M2370 1290 c14 -4 34 -8 45 -8 16 0 15 2 -5 8 -14 4 -34 8 -45 8 -16
0 -15 -2 5 -8z"/>
<path d="M2445 1287 c6 -15 112 -54 121 -44 3 2 -17 10 -43 17 -26 7 -56 20
-66 28 -16 14 -17 14 -12 -1z"/>
<path d="M3450 1285 c14 -8 30 -14 35 -14 6 0 -1 6 -15 14 -14 8 -29 14 -35
14 -5 0 1 -6 15 -14z"/>
<path d="M4466 1269 c15 -16 31 -26 36 -23 12 8 -28 51 -47 51 -11 0 -8 -9 11
-28z m19 1 c10 -11 16 -20 13 -20 -3 0 -13 9 -23 20 -10 11 -16 20 -13 20 3 0
13 -9 23 -20z"/>
<path d="M4831 1284 c0 -11 3 -14 6 -6 3 7 2 16 -1 19 -3 4 -6 -2 -5 -13z"/>
<path d="M2288 1283 c7 -3 16 -2 19 1 4 3 -2 6 -13 5 -11 0 -14 -3 -6 -6z"/>
<path d="M4298 1283 c7 -3 16 -2 19 1 4 3 -2 6 -13 5 -11 0 -14 -3 -6 -6z"/>
<path d="M4408 1283 c7 -3 16 -2 19 1 4 3 -2 6 -13 5 -11 0 -14 -3 -6 -6z"/>
<path d="M2328 1273 c7 -3 16 -2 19 1 4 3 -2 6 -13 5 -11 0 -14 -3 -6 -6z"/>
<path d="M4368 1273 c7 -3 16 -2 19 1 4 3 -2 6 -13 5 -11 0 -14 -3 -6 -6z"/>
<path d="M2375 1260 c11 -5 27 -9 35 -9 9 0 8 4 -5 9 -11 5 -27 9 -35 9 -9 0
-8 -4 5 -9z"/>
<path d="M2649 1254 c-5 -17 -12 -20 -40 -16 -19 2 -32 2 -29 -1 5 -6 64 -15
140 -22 48 -5 38 0 -22 10 -28 4 -37 11 -40 28 -3 22 -3 22 -9 1z"/>
<path d="M2884 1257 c1 -8 8 -22 15 -30 11 -14 6 -16 -41 -20 l-53 -3 64 -2
c52 -2 61 0 52 11 -6 8 -9 16 -6 19 3 3 -4 13 -14 22 -16 14 -19 15 -17 3z"/>
<path d="M3539 1250 c24 -11 55 -23 70 -26 14 -2 4 4 -24 16 -68 28 -100 35
-46 10z"/>
<path d="M4218 1263 c7 -3 16 -2 19 1 4 3 -2 6 -13 5 -11 0 -14 -3 -6 -6z"/>
<path d="M3150 1250 c-8 -5 -10 -10 -5 -10 6 0 17 5 25 10 8 5 11 10 5 10 -5
0 -17 -5 -25 -10z"/>
<path d="M4050 1254 c0 -13 18 -39 24 -34 2 3 -2 14 -10 24 -8 11 -14 16 -14
10z"/>
<path d="M4298 1253 c7 -3 16 -2 19 1 4 3 -2 6 -13 5 -11 0 -14 -3 -6 -6z"/>
<path d="M4847 1249 c7 -7 15 -10 18 -7 3 3 -2 9 -12 12 -14 6 -15 5 -6 -5z"/>
<path d="M1771 1243 c-1 -17 16 -25 25 -12 4 7 3 9 -4 5 -5 -3 -13 0 -15 6 -4
9 -6 10 -6 1z"/>
<path d="M2430 1246 c0 -2 9 -6 20 -9 11 -3 18 -1 14 4 -5 9 -34 13 -34 5z"/>
<path d="M4524 1234 c4 -23 43 -51 43 -30 0 8 -6 12 -15 8 -9 -3 -13 -1 -9 5
4 6 0 16 -7 22 -12 10 -14 9 -12 -5z"/>
<path d="M4930 1241 c0 -7 -5 -9 -12 -5 -7 5 -8 3 -3 -5 5 -9 10 -10 18 -2 6
6 8 14 4 18 -4 3 -7 1 -7 -6z"/>
<path d="M4098 1233 c6 -2 18 -2 25 0 6 3 1 5 -13 5 -14 0 -19 -2 -12 -5z"/>
<path d="M2160 1210 c-29 -22 -45 -26 -34 -7 4 6 3 9 -1 4 -13 -11 -16 -47 -5
-47 6 0 10 -8 11 -17 0 -12 2 -13 6 -5 3 7 -1 19 -7 27 -7 8 -9 15 -4 15 9 0
73 49 64 49 -3 0 -16 -8 -30 -19z"/>
<path d="M2528 1223 c7 -3 16 -2 19 1 4 3 -2 6 -13 5 -11 0 -14 -3 -6 -6z"/>
<path d="M3078 1223 c7 -3 16 -2 19 1 4 3 -2 6 -13 5 -11 0 -14 -3 -6 -6z"/>
<path d="M3520 1221 c8 -6 57 -20 109 -32 63 -14 89 -24 80 -30 -11 -7 -10 -9
4 -9 24 0 21 19 -5 30 -13 5 -55 16 -94 24 -39 9 -80 18 -90 22 -16 5 -16 4
-4 -5z"/>
<path d="M3985 1220 l-40 -7 35 -1 c19 0 44 3 55 8 24 10 7 10 -50 0z"/>
<path d="M2003 1180 c3 -22 1 -43 -4 -46 -12 -7 -12 -41 0 -48 5 -3 23 -1 41
5 23 9 34 9 43 0 13 -13 57 -15 57 -3 0 4 -12 8 -27 7 -17 0 -27 5 -26 12 2 9
-8 8 -38 -3 -52 -18 -51 -18 -47 8 2 12 14 28 28 35 24 12 25 13 3 13 -18 0
-23 6 -23 25 0 20 5 25 24 25 14 0 32 -7 40 -16 9 -8 16 -11 16 -5 0 15 -34
31 -66 31 -25 0 -26 -2 -21 -40z"/>
<path d="M2452 1208 c-7 -7 -16 -13 -20 -14 -4 0 -14 -4 -24 -8 -9 -4 -30 0
-48 9 -18 9 -34 15 -36 12 -8 -7 74 -39 84 -33 6 3 12 2 14 -2 1 -5 13 4 26
20 24 29 26 38 4 16z"/>
<path d="M2578 1213 c7 -3 16 -2 19 1 4 3 -2 6 -13 5 -11 0 -14 -3 -6 -6z"/>
<path d="M2995 1210 l-40 -7 35 -1 c19 0 44 3 55 8 24 10 7 10 -50 0z"/>
<path d="M3648 1213 c7 -3 16 -2 19 1 4 3 -2 6 -13 5 -11 0 -14 -3 -6 -6z"/>
<path d="M3720 1210 l-45 -7 42 -1 c23 -1 45 3 48 8 3 6 5 9 3 8 -2 0 -23 -4
-48 -8z"/>
<path d="M4678 1213 c15 -3 22 -11 22 -29 0 -18 -5 -24 -22 -24 -22 -1 -22 -1
-3 -12 43 -25 49 -61 8 -52 l-28 6 25 -15 c34 -19 47 -5 33 33 -7 19 -8 42 -3
60 10 34 5 40 -29 39 -24 -2 -24 -2 -3 -6z"/>
<path d="M3080 1200 c-20 -6 -21 -8 -5 -8 11 0 31 4 45 8 20 6 21 8 5 8 -11 0
-31 -4 -45 -8z"/>
<path d="M4265 1186 c10 -14 19 -26 22 -26 7 0 -17 39 -28 46 -6 3 -3 -5 6
-20z"/>
<path d="M4335 1189 c-22 -10 -34 -19 -27 -19 7 0 26 7 42 15 44 23 79 3 44
-26 -14 -11 -14 -13 0 -21 20 -11 20 -22 0 -43 -15 -15 -18 -15 -35 1 -17 16
-18 15 -7 -13 l11 -29 33 30 c31 27 33 31 18 47 -13 14 -13 20 -3 38 7 11 11
22 9 24 -16 14 -50 13 -85 -4z"/>
<path d="M4625 1200 c-3 -6 1 -7 9 -4 18 7 21 14 7 14 -6 0 -13 -4 -16 -10z"/>
<path d="M2290 1189 c0 -5 5 -7 10 -4 6 3 10 8 10 11 0 2 -4 4 -10 4 -5 0 -10
-5 -10 -11z"/>
<path d="M2621 1156 c-30 -31 -39 -46 -30 -51 7 -5 10 -4 6 2 -9 14 63 81 93
86 l25 4 -25 2 c-18 1 -39 -12 -69 -43z"/>
<path d="M2780 1180 c95 -12 191 -17 183 -9 -5 3 -62 9 -128 12 -88 4 -103 3
-55 -3z"/>
<path d="M2998 1183 c-28 -7 -21 -28 14 -38 17 -6 38 -21 47 -34 16 -24 16
-24 -17 -18 -21 4 -31 3 -27 -3 9 -15 -21 -12 -33 3 -5 6 -12 23 -15 37 l-4
25 -2 -27 c-2 -43 23 -60 78 -52 25 4 47 8 49 9 8 6 -46 59 -72 70 l-31 13 35
10 c34 10 13 14 -22 5z"/>
<path d="M3943 1183 c9 -2 25 -2 35 0 9 3 1 5 -18 5 -19 0 -27 -2 -17 -5z"/>
<path d="M4083 1152 c21 -21 34 -42 30 -47 -5 -4 -2 -5 5 0 10 5 4 17 -24 46
-21 22 -40 39 -43 39 -3 0 12 -17 32 -38z"/>
<path d="M3793 1173 c20 -2 54 -2 75 0 20 2 3 4 -38 4 -41 0 -58 -2 -37 -4z"/>
<path d="M4582 1168 c-7 -7 -12 -19 -12 -27 0 -11 5 -8 16 7 18 25 15 39 -4
20z"/>
<path d="M2304 1161 c5 -8 3 -17 -5 -22 -8 -5 -9 -9 -4 -9 6 0 16 4 23 9 10 6
9 11 -4 22 -14 11 -16 11 -10 0z"/>
<path d="M3740 1138 c0 -39 -15 -58 -44 -58 -17 0 -18 2 -6 10 11 7 5 8 -19 4
-31 -7 -33 -6 -22 14 6 12 19 26 29 31 9 6 12 11 6 11 -13 0 -54 -43 -54 -57
0 -6 21 -14 46 -18 54 -8 74 5 74 48 0 28 1 29 18 15 9 -8 23 -19 31 -23 25
-14 2 13 -29 35 l-30 21 0 -33z"/>
<path d="M2909 1134 c-7 -9 -6 -12 6 -10 22 3 40 23 20 23 -8 0 -20 -6 -26
-13z"/>
<path d="M2429 1102 c5 -34 6 -35 9 -8 2 16 0 32 -5 37 -5 5 -7 -7 -4 -29z"/>
<path d="M2526 1121 c-26 -29 -37 -78 -19 -85 8 -3 19 -3 24 0 6 3 17 0 26 -8
15 -12 15 -11 3 9 -11 17 -18 19 -32 12 -15 -8 -18 -6 -18 13 0 32 25 66 53
71 21 4 21 4 1 6 -11 0 -28 -7 -38 -18z"/>
<path d="M4138 1133 c7 -3 16 -2 19 1 4 3 -2 6 -13 5 -11 0 -14 -3 -6 -6z"/>
<path d="M4610 1132 c0 -4 5 -13 12 -20 9 -9 7 -13 -5 -18 -9 -3 -24 -4 -32 0
-8 3 -15 1 -15 -4 0 -14 42 -12 60 3 14 11 14 14 -2 30 -10 9 -18 13 -18 9z"/>
<path d="M4181 1113 c7 -12 15 -20 18 -17 3 2 -3 12 -13 22 -17 16 -18 16 -5
-5z"/>
<path d="M4272 1090 c0 -19 2 -27 5 -17 2 9 2 25 0 35 -3 9 -5 1 -5 -18z"/>
<path d="M2354 1099 c-3 -6 -17 -9 -30 -6 -13 2 -21 0 -18 -4 3 -5 11 -9 19
-9 7 0 16 -8 18 -17 4 -15 5 -14 6 3 0 11 6 25 13 32 7 7 9 12 6 12 -4 0 -10
-5 -14 -11z"/>
<path d="M2531 1084 c0 -11 3 -14 6 -6 3 7 2 16 -1 19 -3 4 -6 -2 -5 -13z"/>
<path d="M2808 1079 c-16 -12 -28 -30 -27 -42 0 -21 1 -21 10 3 13 31 11 29
56 45 31 12 33 14 13 14 -14 0 -37 -9 -52 -20z"/>
<path d="M2899 1075 c-2 -19 -13 -34 -29 -42 -16 -8 -19 -13 -9 -13 24 0 51
35 47 62 -4 20 -5 20 -9 -7z"/>
<path d="M3801 1079 c-1 -24 25 -59 45 -59 4 0 -1 7 -13 15 -12 8 -24 28 -26
43 l-4 27 -2 -26z"/>
<path d="M3854 1090 c37 -11 66 -38 66 -62 0 -24 -8 -23 -39 5 -14 12 -20 15
-13 5 10 -13 10 -17 0 -21 -7 -3 -3 -6 9 -6 12 -1 25 -5 28 -11 12 -20 25 -9
25 20 0 38 -42 80 -79 79 l-26 -1 29 -8z"/>
<path d="M4170 1082 c0 -23 -28 -62 -44 -62 -8 0 -11 11 -8 33 6 41 -3 33 -11
-10 -6 -28 -4 -33 13 -33 11 0 25 6 32 13 6 8 22 11 35 9 20 -4 23 0 22 24 -2
25 -2 26 -6 6 -6 -32 -29 -22 -25 11 2 15 1 27 -2 27 -3 0 -6 -8 -6 -18z"/>
<path d="M2592 1058 c2 -21 -1 -40 -7 -42 -5 -2 -2 -5 7 -5 14 -1 16 6 11 37
-8 49 -17 57 -11 10z"/>
<path d="M2400 1061 c0 -5 7 -11 15 -15 8 -3 15 -1 15 3 0 5 -7 11 -15 15 -8
3 -15 1 -15 -3z"/>
<path d="M4290 1055 c-11 -13 -10 -14 4 -9 9 3 16 10 16 15 0 13 -6 11 -20 -6z"/>
<path d="M2359 1022 c7 -12 17 -20 22 -16 6 3 9 7 7 8 -2 1 -12 8 -22 16 -18
14 -19 14 -7 -8z"/>
<path d="M4350 1032 c0 -7 -7 -12 -16 -12 -8 0 -12 -5 -8 -11 4 -7 11 -6 22 5
9 8 13 19 9 22 -4 4 -7 2 -7 -4z"/>
<path d="M2798 1016 c-27 -20 -22 -26 11 -13 17 6 28 15 25 19 -7 11 -16 10
-36 -6z"/>
</g>
</svg>
